<?xml version="1.0" encoding="utf-8"?>
<!-- Generator: Adobe Illustrator 27.5.0, SVG Export Plug-In . SVG Version: 6.00 Build 0)  -->
<svg version="1.1" xmlns="http://www.w3.org/2000/svg" xmlns:xlink="http://www.w3.org/1999/xlink" x="0px" y="0px"
	 viewBox="0 0 750 500" style="enable-background:new 0 0 750 500;" xml:space="preserve">
<g id="BACKGROUND">
	<linearGradient id="SVGID_1_" gradientUnits="userSpaceOnUse" x1="404.3358" y1="796.1" x2="360.9019" y2="-12.4434">
		<stop  offset="0" style="stop-color:#F3EEEE"/>
		<stop  offset="0.9996" style="stop-color:#B9D3ED"/>
	</linearGradient>
	<rect style="fill:url(#SVGID_1_);" width="750" height="500"/>
</g>
<g id="OBJECTS">
	<g>
		<defs>
			<rect id="SVGID_00000070088377690289384790000016825994269307330956_" width="750" height="500"/>
		</defs>
		<clipPath id="SVGID_00000140696655313732732870000014840852056320282276_">
			<use xlink:href="#SVGID_00000070088377690289384790000016825994269307330956_"  style="overflow:visible;"/>
		</clipPath>
		<g style="opacity:0.88;clip-path:url(#SVGID_00000140696655313732732870000014840852056320282276_);">
			<g style="opacity:0.2;">
				<path style="fill:#EFF9F8;" d="M369.717,497.563c0.653-135.949,1.332-272.306,18.597-407.156
					c3.847-30.048,6.835-77.272,6.706-107.565c7.804,2.747,18.323,5.755,26.16,3.104c-14.033,165.841-14.084,347.065,0.057,512.897
					c-18.382-0.933-36.853-0.095-55.075,2.497"/>
			</g>
			<g style="opacity:0.42;">
				<path style="fill:#EFF9F8;" d="M592.166,368.236c1.739-93.283,10.686-225.486,22.774-317.998c6.932-4.22,17.222-4.549,23.943,0
					c-3.024,45.264-8.321,130.143-10.057,175.475c-0.286,7.476-0.446,15.414,3.329,21.872
					c14.489-40.203,26.303-81.369,35.339-123.137c10.385,8.95,8.537,25.244,5.793,38.677c-3.654,17.888-7.309,35.777-10.963,53.665
					c-2.429,11.888-4.874,23.835-9.173,35.181c-4.629,12.217-11.398,23.73-13.999,36.533c-2.572,12.66-0.897,25.756,0.928,38.545
					c0.438,3.07-1.126,6.101-0.514,9.141c2.642,13.113-2.925,3.597-4.762,5.031c-11.728,9.152-23.457,18.304-35.185,27.455"/>
				<g>
					<path style="fill:#EFF9F8;" d="M594.666,368.236c1.598-84.116,7.007-168.301,15.295-252.014
						c2.181-22.029,4.62-44.033,7.479-65.984c-0.413,0.719-0.825,1.439-1.238,2.159c6.665-3.734,14.83-4.057,21.419,0
						c-0.413-0.72-0.825-1.439-1.238-2.159c-3.486,52.23-6.795,104.487-9.25,156.776c-0.629,13.395-3.685,29.557,2.864,41.833
						c1.084,2.032,3.885,1.308,4.569-0.597c14.454-40.232,26.258-81.363,35.339-123.137c-1.393,0.368-2.786,0.736-4.178,1.103
						c13.408,12.375,5.302,35.503,2.214,50.619c-4.123,20.182-7.521,40.695-12.813,60.61c-4.901,18.442-16.23,35.053-19.008,54.023
						c-1.374,9.384-0.71,18.879,0.463,28.245c0.582,4.644,0.816,8.784,0.443,13.438c-0.151,1.879,0.167,3.516,0.441,5.354
						c0.038,0.251,0.182,2.731,0.299,2.795c0.666-0.186,1.331-0.373,1.997-0.56c-0.201-0.117-0.396-0.242-0.586-0.376
						c-2.969-5.661-11.142,2.992-13.023,4.46c-9.434,7.361-18.868,14.723-28.301,22.084c-2.534,1.978,1.027,5.493,3.536,3.536
						c8.924-6.963,17.848-13.927,26.771-20.89c1.639-1.279,4.945-4.902,6.884-5.372c0.594-0.144-1.166-0.658,0.19-0.478
						c0.243,0.032,0.614,0.475,0.811,0.55c1.453,0.554,2.357,1.813,4.125,1.377c1.477-0.364,2.157-1.578,2.477-2.949
						c0.262-1.12,0.076-2.331-0.054-3.453c-0.348-3.004-0.536-5.426-0.176-8.458c0.548-4.61-0.646-9.241-1.164-13.822
						c-0.622-5.505-1.032-11.044-0.885-16.587c0.573-21.485,13.51-39.571,19.105-59.834c5.901-21.371,9.44-43.53,13.875-65.241
						c3.373-16.511,10.36-39.275-4.087-52.609c-1.307-1.206-3.761-0.819-4.178,1.103c-9.081,41.775-20.885,82.905-35.339,123.137
						c1.523-0.199,3.046-0.398,4.569-0.597c-3.672-6.882-3.22-14.668-2.925-22.222c0.214-5.487,0.458-10.972,0.714-16.457
						c0.581-12.426,1.233-24.848,1.916-37.268c1.493-27.142,3.133-54.276,4.849-81.404c0.817-12.912,1.653-25.824,2.514-38.733
						c0.058-0.877-0.522-1.718-1.238-2.159c-4.197-2.584-8.979-3.804-13.909-3.611c-3.863,0.151-10.331,0.95-13.063,4.002
						c-2.174,2.428-1.784,9.959-2.168,13.055c-0.663,5.359-1.303,10.722-1.921,16.086c-2.664,23.101-4.955,46.245-7.004,69.409
						c-4.298,48.586-7.571,97.271-9.859,145.993c-1.177,25.062-2.078,50.138-2.555,75.223
						C589.605,371.455,594.605,371.455,594.666,368.236L594.666,368.236z"/>
				</g>
			</g>
			<g style="opacity:0.42;">
				<path style="fill:#EFF9F8;" d="M163.128-12.28c-15.523,130.626-26.548,274.679-2.66,404.037
					c2.199,11.911,21.724,9.527,32.586,14.886c5.096,2.514,10.98,2.725,16.66,2.887c3.827,0.109,8.217-0.021,10.67-2.96
					c2.29-2.744,1.887-6.767,1.303-10.292c-2.19-13.222-5.164-26.3-8.003-39.398C187.876,237.84,176.126,109.47,172.439-12.28
					H163.128z"/>
				<g>
					<path style="fill:#EFF9F8;" d="M160.628-12.28c-14.383,121.248-24.688,244.998-8.573,366.617
						c0.901,6.798,1.881,13.585,2.958,20.357c1.018,6.398,1.224,14.271,3.838,20.231c3.529,8.047,13.992,9.205,21.537,10.687
						c4.802,0.943,9.01,2.378,13.553,4.13c6.058,2.336,13.765,2.851,20.184,2.175c14.773-1.554,9.854-17.693,7.925-27.605
						c-5.879-30.206-12.828-60.149-18.092-90.483c-5.47-31.521-10.024-63.199-13.81-94.966
						c-8.354-70.095-13.049-140.596-15.208-211.143c-0.041-1.351-1.112-2.5-2.5-2.5c-3.104,0-6.208,0-9.311,0c-3.217,0-3.223,5,0,5
						c3.104,0,6.208,0,9.311,0c-0.833-0.833-1.667-1.667-2.5-2.5c3.645,119.072,14.195,238.477,38.258,355.278
						c3.06,14.855,6.556,29.623,9.393,44.524c1.295,6.804,5.586,18.866-4.94,19.506c-6.959,0.423-13.473-0.666-19.884-3.236
						c-8.184-3.281-18.966-2.431-26.345-7.466c-4.427-3.021-4.29-9.252-5.118-14.076c-1.324-7.71-2.522-15.441-3.604-23.189
						c-8.06-57.727-9.705-116.247-8.03-174.453c1.895-65.854,8.201-131.494,15.958-196.888
						C166.006-15.469,161.003-15.441,160.628-12.28z"/>
				</g>
			</g>
			<g>
				<g>
					<path style="fill:#EFF9F8;" d="M86.422-10.95c0.508,23.279,0.323,61.717,0.831,84.996
						c2.145,98.224-13.448,196.028-9.914,294.212c0.215,5.985,9.119,51.495,93.456,47.196
						c-15.261-15.165-18.68-38.233-21.295-59.588c-4.281-34.961-8.562-69.922-12.842-104.884
						c-3.359-27.433-6.722-54.912-7.566-82.537c-1.674-54.797,5.524-128.609-4.538-182.499L86.422-10.95z"/>
					<g>
						<path style="fill:#EFF9F8;" d="M83.922-10.95c0.762,36.143,1.192,72.413,1.024,108.562
							c-0.213,45.832-3.649,91.559-6.556,137.276c-1.453,22.856-2.777,45.724-3.499,68.616c-0.678,21.481-1.71,43.503-0.042,64.956
							c0.793,10.203,6.809,19.992,13.868,27.08c20.914,21,54.153,23.732,82.078,22.415c2.142-0.101,3.325-2.672,1.768-4.268
							c-19.226-19.702-19.723-50.959-22.865-76.62c-3.913-31.961-7.867-63.917-11.736-95.883
							c-3.597-29.72-6.535-59.433-6.632-89.396c-0.086-26.697,1.007-53.383,1.181-80.078c0.189-28.843-0.334-57.979-5.547-86.427
							c-0.183-0.997-1.396-1.918-2.411-1.835c-12.711,1.035-25.421,2.069-38.131,3.104c-3.185,0.259-3.213,5.261,0,5
							c12.71-1.035,25.421-2.069,38.131-3.104c-0.804-0.612-1.607-1.224-2.411-1.835c9.753,53.223,4.21,108.301,4.183,162.046
							c-0.015,30.361,2.77,60.447,6.399,90.565c3.89,32.292,7.899,64.57,11.852,96.854c3.359,27.434,3.928,60.115,24.45,81.145
							c0.589-1.423,1.178-2.845,1.768-4.268c-25.433,1.2-55.492-0.685-75.691-18.287c-7.423-6.469-14.411-16.736-15.24-25.984
							c-1.806-20.161-0.666-41.054-0.091-61.257c0.623-21.911,1.825-43.801,3.186-65.678c2.743-44.092,6.149-88.17,6.864-132.358
							c0.343-21.2-0.267-42.392-0.405-63.59c-0.123-18.916-0.097-37.837-0.496-56.75C88.854-14.163,83.854-14.174,83.922-10.95z"/>
					</g>
				</g>
				<g>
					<path style="fill:#EFF9F8;" d="M86.516,218.663c-17.786-8.828-28.482-27.709-34.152-46.739
						c-5.67-19.03-7.372-39.061-12.961-58.115c-3.761-12.819-9.254-25.098-12.631-38.024c-6.405-24.51-4.347-57.899-2.868-83.189
						l-11.972-1.33l-0.229,24.85c-0.284,21.185-0.551,42.568,3.724,63.318c7.425,36.036,28.348,69.284,28.932,106.072
						c0.131,8.237-0.734,16.765,2.18,24.47c1.847,4.885,5.099,9.09,8.338,13.187c9.101,11.51,18.474,22.806,28.107,33.874
						L86.516,218.663z"/>
					<g>
						<path style="fill:#EFF9F8;" d="M87.778,216.505c-28.66-14.773-34.768-49.283-40.202-77.956
							c-3.186-16.812-8.087-32.556-13.751-48.667c-5.295-15.06-8.086-30.05-8.729-46.003c-0.689-17.101,0.309-34.213,1.308-51.281
							c0.085-1.455-1.222-2.358-2.5-2.5c-3.99-0.443-7.981-0.887-11.972-1.33c-1.354-0.15-2.489,1.267-2.5,2.5
							c-0.272,29.518-2.387,59.761,3.585,88.833c4.138,20.144,12.386,39.099,19.039,58.473c3.34,9.726,6.314,19.612,8.11,29.751
							c1.913,10.799,0.978,21.43,1.907,32.258c0.981,11.446,7.073,19.409,14.014,28.096c8.165,10.218,16.553,20.254,25.13,30.129
							c1.554,1.789,4.087,0.197,4.268-1.768c1.177-12.792,2.355-25.584,3.532-38.376c0.295-3.203-4.707-3.183-5,0
							c-1.177,12.792-2.354,25.584-3.532,38.376c1.423-0.589,2.845-1.179,4.268-1.768c-7.322-8.429-14.508-16.974-21.532-25.654
							c-7.423-9.173-15.27-17.624-16.221-29.911c-0.739-9.54,0.042-18.973-1.335-28.504c-1.43-9.892-4.043-19.556-7.139-29.045
							c-6.184-18.949-14.286-37.286-19.144-56.659c-5.535-22.074-5.494-44.847-5.203-67.453c0.115-8.925,0.172-17.851,0.255-26.777
							c-0.833,0.833-1.667,1.667-2.5,2.5c3.991,0.443,7.981,0.887,11.972,1.33c-0.833-0.833-1.667-1.667-2.5-2.5
							c-1.844,31.513-4.045,63.907,6.115,94.308c2.792,8.353,6.059,16.543,8.679,24.954c2.673,8.579,4.52,17.37,6.208,26.187
							c3.102,16.2,5.763,32.635,12.413,47.849c6.326,14.473,16.176,27.576,30.435,34.926
							C88.11,222.294,90.642,217.981,87.778,216.505z"/>
					</g>
				</g>
			</g>
			<g>
				<path style="fill:#EFF9F8;" d="M275.309,437.154c-5.178-71.572-4.996-143.532,0.544-215.077
					c1.484-19.171,3.354-38.328,3.763-57.552c1.175-55.179-8.491-120.448-0.32-175.031l-36.801,4.656
					c-3.77,33.535,2.715,64.491-0.357,98.097c-11.98-29.551-9.975-69.543-20.483-99.649l-16.849-0.887
					c3.613,36.086,10.566,86.019,22.68,120.203c5.441,15.354,12.621,30.451,13.781,46.699c0.417,5.847,0.039,11.718-0.339,17.567
					c-5.181,80.109-10.367,160.276-20.391,239.924L275.309,437.154z"/>
				<g>
					<path style="fill:#EFF9F8;" d="M277.809,437.154c-4.329-60.419-4.923-121.086-1.657-181.574
						c1.639-30.359,5.311-60.652,5.964-91.055c0.583-27.14-1.287-54.27-2.507-81.367c-1.393-30.944-2.396-62.25,2.097-93
						c0.204-1.394-0.615-3.392-2.411-3.165c-12.267,1.552-24.534,3.104-36.801,4.656c-1.458,0.184-2.34,1.005-2.5,2.5
						c-3.488,32.669,2.46,65.404-0.357,98.097c1.637-0.222,3.274-0.443,4.911-0.665c-12.607-31.855-9.48-67.358-20.483-99.649
						c-0.374-1.098-1.254-1.774-2.411-1.835c-5.616-0.296-11.232-0.591-16.849-0.887c-1.254-0.066-2.631,1.203-2.5,2.5
						c2.406,23.867,5.523,47.697,10.027,71.265c2.297,12.015,4.959,23.979,8.334,35.741c3.519,12.266,8.472,23.967,12.611,36.018
						c2.143,6.24,4.027,12.625,4.979,19.167c1.172,8.053,0.564,16.17,0.043,24.248c-0.975,15.104-1.955,30.208-2.967,45.31
						c-2.025,30.203-4.185,60.398-6.741,90.561c-2.889,34.09-6.3,68.135-10.556,102.083c-0.144,1.151,0.893,2.049,1.835,2.411
						c18.257,7.017,36.515,14.034,54.772,21.051c3.006,1.155,4.307-3.677,1.329-4.821c-18.257-7.017-36.515-14.034-54.772-21.051
						c0.612,0.804,1.224,1.607,1.835,2.411c7.531-60.073,12.368-120.435,16.497-180.825c1.032-15.101,2.022-30.205,3.002-45.309
						c0.925-14.252,2.63-28.593-0.437-42.699c-2.903-13.351-8.753-25.795-13.123-38.682c-3.781-11.15-6.688-22.59-9.196-34.088
						c-5.95-27.277-9.675-55.028-12.473-82.79c-0.833,0.833-1.667,1.667-2.5,2.5c5.616,0.296,11.232,0.591,16.849,0.887
						c-0.803-0.612-1.607-1.224-2.411-1.835c11.002,32.29,7.875,67.793,20.483,99.649c1.037,2.621,4.661,2.239,4.911-0.665
						c2.816-32.694-3.131-65.428,0.357-98.097c-0.833,0.833-1.667,1.667-2.5,2.5c12.267-1.552,24.534-3.104,36.801-4.656
						c-0.804-1.055-1.607-2.11-2.411-3.165c-7.939,54.332,0.125,109.303,0.328,163.848c0.111,29.79-3.358,59.407-5.249,89.102
						c-1.967,30.879-2.935,61.823-2.906,92.765c0.033,34.237,1.304,68.462,3.751,102.611
						C273.037,440.345,278.039,440.37,277.809,437.154z"/>
				</g>
			</g>
			<g style="opacity:0.34;">
				<path style="fill:#EFF9F8;" d="M334.909,490.21c-1.74-160.353-21.799-343.018-33.887-502.046
					c-9.311,3.99-17.292,4.877-26.603,4.877c3.024,77.809,22.094,174.246,23.83,252.172c0.286,12.851,0.446,26.496-3.329,37.598
					c-14.489-69.109-26.303-139.873-35.339-211.672c-10.385,15.386-8.537,43.395-5.793,66.485c3.654,30.75,7.309,61.5,10.963,92.25
					c2.428,20.435,4.874,40.973,9.173,60.477c4.628,21.001,11.398,40.791,13.999,62.8c2.572,21.763,0.897,44.275-0.928,66.259
					c-0.438,5.277,1.126,10.487,0.514,15.713c-2.642,22.542,2.924,6.184,4.761,8.648c11.729,15.732,23.457,31.464,35.186,47.196"/>
				<g>
					<path style="fill:#EFF9F8;" d="M338.187,490.21c-0.732-65.012-4.252-129.964-8.817-194.808
						c-4.67-66.333-10.495-132.576-16.171-198.828c-3.095-36.126-6.146-72.257-8.899-108.41c-0.143-1.873-2.02-4.037-4.149-3.161
						c-8.38,3.449-16.707,4.703-25.732,4.76c-1.719,0.011-3.35,1.493-3.278,3.278c3.047,75.827,17.972,150.6,22.702,226.296
						c0.612,9.789,1.033,19.59,1.201,29.397c0.191,11.156,0.157,22.479-3.284,33.205c2.107,0,4.214,0,6.321,0
						c-14.596-69.755-26.297-140.098-35.222-210.801c-0.395-3.126-4.214-4.587-6.108-1.654c-6.662,10.316-8.142,23.162-8.359,35.18
						c-0.27,14.989,1.753,29.886,3.518,44.736c4.098,34.48,7.839,69.024,12.4,103.446c2.149,16.215,4.827,32.316,8.771,48.199
						c3.904,15.723,8.525,31.311,10.926,47.363c2.596,17.357,2.233,35.012,1.116,52.476c-0.541,8.456-1.92,17.066-1.169,25.527
						c0.562,6.329-0.841,12.491-0.389,18.759c0.204,2.84,1.704,6.132,5.199,5.152c1.039-0.291,4.464-3.487,4.181-3.796
						c-0.388,0.078-0.777,0.156-1.165,0.235c-1.335-0.097-1.527,0.244-0.579,1.021c0.147,0.884,1.798,2.412,2.346,3.146
						c1.368,1.835,2.737,3.671,4.105,5.506c2.932,3.933,5.864,7.866,8.796,11.799c6.06,8.128,12.12,16.256,18.179,24.384
						c2.493,3.344,8.186,0.079,5.66-3.309c-10.165-13.634-20.329-27.269-30.494-40.903c-1.96-2.629-4.75-9.14-9.046-8.023
						c-1.091,0.284-3.97,2.31-4.147,3.589c-0.109,0.78-1.708-0.058,1.693,0.833c3.034,0.795,1.402,0.868,1.8-0.798
						c0.706-2.955,0.571-6.714,0.76-9.757c0.218-3.513-0.353-6.961-0.562-10.459c-0.242-4.059,0.298-8.118,0.615-12.162
						c1.322-16.874,2.295-33.86,1.035-50.77c-2.353-31.579-13.884-61.585-18.855-92.757c-5.339-33.482-8.519-67.375-12.519-101.038
						c-2.017-16.974-4.593-33.99-5.419-51.077c-0.691-14.297-0.783-30.732,7.265-43.195c-2.036-0.551-4.072-1.103-6.108-1.654
						c8.998,71.287,20.739,142.212,35.456,212.543c0.698,3.335,5.393,2.893,6.321,0c5.618-17.509,3.733-37.233,2.827-55.322
						c-0.947-18.903-2.651-37.763-4.648-56.581c-4.099-38.634-9.505-77.117-13.625-115.749c-2.234-20.945-4.092-41.938-4.938-62.989
						c-1.093,1.093-2.185,2.185-3.278,3.278c9.536-0.06,18.615-1.348,27.475-4.994c-1.383-1.053-2.766-2.107-4.149-3.161
						c4.924,64.66,10.775,129.245,16.199,193.864c5.565,66.297,10.75,132.64,14.134,199.088c1.85,36.339,3.145,72.709,3.554,109.094
						C331.678,494.426,338.234,494.436,338.187,490.21L338.187,490.21z"/>
				</g>
			</g>
			<g style="opacity:0.34;">
				<path style="fill:#EFF9F8;" d="M451.169,490.21c1.739-160.353,28.982-255.523-21.565-508.254
					c10.641,5.321,58.645,21.821,65.366,29.639c-20.151,67.321-7.725,213.337-6.395,297.138
					c0.204,12.852,22.613-109.073,14.632-121.045c14.488-69.109,14.255-44.751,23.29-116.549
					c10.385,15.386,8.537,43.395,5.793,66.485c-3.654,30.75-7.309,61.5-10.963,92.25c-2.429,20.435-4.874,40.973-9.173,60.477
					c-4.629,21.001-11.398,40.791-13.999,62.8c-2.572,21.763-0.897,44.275,0.928,66.259c0.438,5.277-1.126,10.487-0.514,15.713
					c2.642,22.542-2.925,6.184-4.761,8.648c-11.729,15.732-23.457,31.464-35.186,47.196"/>
				<g>
					<path style="fill:#EFF9F8;" d="M454.447,490.21c0.646-57.325,5.226-114.46,7.571-171.716
						c2.626-64.123,0.929-128.152-6.16-191.96c-5.423-48.812-13.485-97.296-23.093-145.449c-1.605,1.234-3.21,2.468-4.815,3.702
						c10.714,5.264,22.222,9.069,33.278,13.541c6.536,2.643,13.06,5.342,19.423,8.382c3.993,1.908,8.948,3.865,12.001,7.204
						c-0.281-1.063-0.562-2.126-0.843-3.189c-5.557,18.799-7.857,38.533-9.377,58.019c-1.901,24.376-2.263,48.862-2.112,73.302
						c0.305,49.666,3.144,99.256,4.569,148.892c0.148,5.171,0.277,10.343,0.37,15.515c0.032,1.771-0.274,4.148,1.144,5.527
						c3.516,3.421,5.819-1.499,6.577-4.219c3.178-11.414,4.894-23.381,6.849-35.046c2.785-16.618,5.25-33.319,6.945-50.087
						c0.703-6.951,1.303-13.936,1.412-20.925c0.068-4.34,0.22-9.207-1.139-13.393c-0.142-0.437-0.475-0.917-0.536-1.354
						c-0.062-0.439-0.025-0.858-0.049-0.489c0.137-2.068,1.85-7.052,2.5-10.014c1.279-5.832,2.601-11.654,3.994-17.459
						c1.764-7.351,3.69-14.658,5.62-21.966c3.887-14.72,6.352-29.63,8.426-44.707c0.971-7.055,1.883-14.117,2.775-21.182
						c-2.036,0.551-4.072,1.103-6.108,1.654c7.053,10.922,7.69,24.871,7.461,37.502c-0.268,14.744-2.36,29.392-4.098,44.012
						c-4.019,33.821-7.57,67.738-12.214,101.48c-2.183,15.861-5.082,31.541-9.03,47.059c-3.929,15.44-8.272,30.797-10.431,46.616
						c-2.194,16.078-2.078,32.317-1.134,48.487c0.481,8.237,1.932,16.723,1.627,24.969c-0.255,6.895-1.117,13.774,0.14,20.658
						c0.352,1.928-1.117,1.994,1.8,1.23c3.395-0.889,1.809,0.01,1.57-0.971c-0.15-0.614-1.421-1.766-1.897-2.174
						c-2.705-2.321-5.082-1.345-7.068,1.24c-11.751,15.295-23.07,30.945-34.599,46.409c-2.523,3.384,3.165,6.656,5.661,3.309
						c10.36-13.897,20.72-27.793,31.081-41.69c0.532-0.713,1.393-1.552,1.759-2.36c0.787-1.734,1.76-0.796,0.007-1.808
						c-2.277-1.315-0.935-0.154-0.856,0.176c0.134,0.557,1.343,1.681,1.763,2.055c1.755,1.563,4.19,2.153,5.984,0.24
						c2.467-2.632,1.256-8.367,0.947-11.446c-0.781-7.77,0.454-15.433-0.175-23.237c-1.387-17.201-2.514-34.504-1.402-51.755
						c1.085-16.826,5.035-33.117,9.263-49.38c4.154-15.977,7.771-31.956,10.222-48.292c5.081-33.849,8.45-67.999,12.489-101.985
						c2.084-17.536,4.832-35.16,5.147-52.845c0.245-13.744-0.688-28.936-8.355-40.81c-1.89-2.927-5.713-1.476-6.108,1.654
						c-2.562,20.3-4.939,40.76-10.043,60.614c-1.907,7.417-3.932,14.8-5.754,22.239c-1.497,6.115-2.91,12.249-4.271,18.396
						c-1.195,5.395-4.136,12.366-2.412,17.619c1.074,3.271,0.973,9.482,0.841,13.774c-0.246,8-1.017,15.985-1.905,23.936
						c-2.044,18.314-4.88,36.553-8.157,54.685c-1.166,6.453-2.372,12.906-3.816,19.303c-0.396,1.755-1.198,3.684-1.371,5.466
						c-0.12,1.239-0.276,0.516-0.186,0.624c0.397,0.478,6.455,0.158,5.728,1.382c0.275-0.463-0.039-1.616-0.049-2.151
						c-0.496-25.226-1.586-50.434-2.563-75.644c-2.145-55.353-4.688-111.218,0.044-166.506c0.975-11.397,2.315-22.776,4.443-34.02
						c0.933-4.929,2.014-9.832,3.326-14.674c1.17-4.317,1.44-6.29-2.258-9.044c-7.125-5.305-16.048-8.569-24.171-11.976
						c-9.882-4.145-19.893-7.966-29.838-11.955c-3.209-1.287-6.441-2.555-9.546-4.081c-2.638-1.296-5.388,0.828-4.815,3.702
						c15.628,78.323,27.07,157.596,29.7,237.498c1.882,57.188-1.321,114.223-4.51,171.299c-1.834,32.839-3.372,65.693-3.742,98.585
						C447.844,494.43,454.399,494.432,454.447,490.21L454.447,490.21z"/>
				</g>
			</g>
			<g>
				<path style="fill:#EFF9F8;" d="M681.116,367.26c-9.729-81.947-23.503-240.539-47.11-319.239
					c16.405-4.434,23.656-7.629,31.481,13.302c2.87,7.676,13.671,82.513,20.281,86.867c5.342,3.518,15.275-32.864,18.294-27.009
					c1.17,2.27-0.938,41.843-0.776,44.424c3.174,50.542,9.603,141.96,24.719,190.005c-11.112-1.537-21.061,5.552-31.924,8.474"/>
				<g>
					<path style="fill:#EFF9F8;" d="M683.692,367.26c-10.2-86.098-17.281-172.727-32.993-258.075
						c-3.829-20.797-8.163-41.571-14.209-61.849c-0.6,1.056-1.199,2.113-1.799,3.169c5.527-1.503,13.445-4.997,19.084-2.329
						c5.339,2.527,8.296,10.289,9.745,15.581c2.699,9.856,3.991,20.232,5.843,30.269c2.45,13.273,4.853,26.599,8.157,39.692
						c1.008,3.995,3.275,18.905,10.121,17.135c3.697-0.956,5.869-6.209,7.361-9.232c2.483-5.031,4.468-10.303,7.043-15.287
						c0.36-0.697,1.377-1.941,1.522-2.702c-0.05,0.263,0.414-0.547,0.414-0.568c-0.005-0.816-1.737-1.448-2.297-0.851
						c-0.298,0.318,0.155,4.075,0.157,4.94c0.012,6.248-0.233,12.499-0.458,18.742c-0.41,11.384-0.529,22.285,0.225,33.659
						c1.195,18.024,2.542,36.04,4.179,54.03c3.721,40.904,7.47,83.314,19.734,122.71c0.828-1.087,1.656-2.174,2.484-3.261
						c-11.703-1.182-21.747,5.434-32.609,8.566c-3.18,0.917-1.828,5.89,1.37,4.968c10.368-2.989,20.083-9.508,31.239-8.382
						c1.656,0.167,2.944-1.782,2.484-3.261c-11.251-36.141-15.078-74.814-18.706-112.331c-2.999-31.025-6.532-62.416-5.362-93.598
						c0.253-6.756,0.522-13.518,0.566-20.28c0.018-2.644,0.816-7.755-1.447-9.821c-6.126-5.594-13.129,16.285-14.61,19.351
						c-1.06,2.195-2.346,4.202-3.51,6.327c-0.281,0.513-0.772,0.883-1.149,1.313c1.104-1.259,0.768,1.268,0.458-0.563
						c-0.225-1.33-1.333-3.001-1.775-4.31c-0.824-2.444-1.506-4.936-2.153-7.432c-3.494-13.479-5.946-27.238-8.471-40.924
						c-1.941-10.518-2.99-21.83-6.36-32.019c-2.238-6.765-6.238-15.381-13.603-17.748c-6.778-2.179-14.535,0.877-21.046,2.647
						c-1.322,0.359-2.197,1.835-1.799,3.169c11.568,38.796,17.74,79.269,23.479,119.263c6.476,45.13,11.529,90.452,16.472,135.771
						c2.31,21.178,4.561,42.364,7.067,63.52C678.925,370.513,684.082,370.552,683.692,367.26L683.692,367.26z"/>
				</g>
			</g>
			<g>
				<path style="fill:#6A86AA;" d="M394.798,497.957c-0.004-26.431,25.204-55.53,52.72-56.624
					c16.319-0.649,32.445,5.794,48.676,4.047c22.822-2.456,40.117-20.071,56.102-35.896c24.075-23.834,50.194-46.206,80.379-62.414
					c30.185-16.208,83.789-26.885,118.274-24.323l-0.998,175.394L394.798,497.957z"/>
			</g>
			<g>
				<path style="fill:#EFF9F8;" d="M505.761,472.011c-7.667-74.893,17.756-186.817,6.16-261.203
					c-5.764-36.971-12.073-74.107-24.821-109.286c-10.844-29.924-35.325-81.778-43.75-112.471l97.545-0.443
					c6.302,33.398,10.948,132.568,16.64,166.075c0.258,1.517,1.007,3.428,2.543,3.332c8.148-24.181,25.871-84.018,36.241-107.333
					l18.622,7.981c-8.816,26.009-33.523,86.828-42.339,112.837c-4.266,12.586-8.553,25.256-10.477,38.405
					c-2.702,18.465-0.663,37.251,1.09,55.831c4.68,49.602,14.599,110.821,15.149,160.64L505.761,472.011z"/>
				<g>
					<path style="fill:#EFF9F8;" d="M508.36,472.011c-3.046-30.604-1.017-61.575,1.341-92.154
						c2.572-33.341,6.091-66.63,7.419-100.056c0.609-15.337,0.761-30.721-0.188-46.048c-1.001-16.166-3.741-32.126-6.458-48.076
						c-6.08-35.698-14.63-70.369-28.309-103.946c-12.547-30.802-27.372-61.25-36.311-93.372c-0.835,1.097-1.671,2.193-2.506,3.29
						c28.449-0.129,56.898-0.259,85.348-0.388c4.066-0.019,8.132-0.037,12.198-0.055c-0.835-0.636-1.671-1.272-2.506-1.908
						c4.024,21.641,5.311,43.9,7.118,65.805c2.114,25.643,3.902,51.325,6.55,76.921c0.546,5.278,1.138,10.552,1.847,15.811
						c0.583,4.328,0.358,11.33,5.483,12.685c1.414,0.374,2.745-0.471,3.197-1.815c5.943-17.691,11.344-35.563,17.073-53.324
						c5.774-17.905,11.308-36.149,18.907-53.388c-1.185,0.311-2.371,0.622-3.556,0.932c6.208,2.66,12.415,5.321,18.622,7.981
						c-0.398-0.978-0.796-1.957-1.194-2.935c-12.574,36.925-28.32,72.701-41.195,109.519c-4.548,13.007-9.106,26.209-11.331,39.848
						c-2.428,14.885-1.818,29.95-0.542,44.914c2.318,27.184,5.764,54.249,8.944,81.342c3.615,30.804,7.05,61.738,7.454,92.781
						c0.429-0.748,0.858-1.496,1.287-2.244c-21.178,13.312-42.357,26.624-63.535,39.936c-3.022,1.9-6.045,3.8-9.067,5.699
						c-2.826,1.776-0.22,6.276,2.624,4.489c14.479-9.101,28.957-18.202,43.435-27.302c8.302-5.218,16.604-10.437,24.906-15.655
						c1.338-0.841,3.07-1.602,4.248-2.67c2.281-2.069,1.254-5.845,1.18-8.673c-0.136-5.23-0.362-10.458-0.654-15.682
						c-2.364-42.336-8.709-84.317-13.162-126.454c-2.401-22.724-5.787-46.347-2.105-69.099c2.892-17.876,9.496-35.185,15.772-52.115
						c12.041-32.48,25.585-64.455,36.753-97.252c0.33-0.97-0.197-2.508-1.194-2.935c-6.208-2.66-12.415-5.321-18.622-7.981
						c-1.172-0.502-2.937-0.473-3.556,0.932c-15.296,34.698-24.45,72.072-36.503,107.953c1.066-0.605,2.131-1.21,3.197-1.815
						c-1.677-0.443-2.125-11.172-2.313-12.716c-0.588-4.826-1.098-9.661-1.578-14.499c-1.178-11.863-2.169-23.745-3.138-35.627
						c-2.024-24.813-3.814-49.655-6.354-74.423c-1.039-10.133-2.12-20.306-3.983-30.327c-0.205-1.104-1.437-1.913-2.506-1.908
						c-28.449,0.129-56.898,0.259-85.348,0.388c-4.066,0.018-8.132,0.037-12.198,0.055c-1.683,0.008-2.961,1.656-2.506,3.29
						c7.866,28.268,20.476,55.24,31.728,82.264c5.627,13.514,11.212,27.06,15.718,40.998c6.045,18.701,10.48,37.882,14.145,57.179
						c3.381,17.806,6.807,35.834,8.541,53.886c1.435,14.933,1.631,29.969,1.287,44.959c-0.757,33.022-4.09,65.924-6.799,98.824
						c-2.842,34.524-5.745,69.572-2.302,104.159C503.49,475.309,508.691,475.342,508.36,472.011z"/>
				</g>
			</g>
			<g>
				<g>
					<g>
						<path style="fill:#BACAD1;" d="M18.4,82.595c0.823,0.67,1.357,1.417,1.805,2.188c0.436,0.774,0.758,1.578,0.983,2.408
							c0.226,0.83,0.35,1.688,0.361,2.576c0,0.891-0.089,1.806-0.469,2.799c-0.827-0.669-1.362-1.416-1.809-2.187
							c-0.436-0.774-0.758-1.578-0.979-2.41c-0.222-0.831-0.346-1.689-0.357-2.577C17.937,84.501,18.024,83.587,18.4,82.595z"/>
					</g>
					<g>
						<path style="fill:#BACAD1;" d="M31.604,117.88c0.787,0.254,1.299,0.627,1.73,1.035c0.419,0.413,0.73,0.874,0.948,1.374
							c0.219,0.5,0.342,1.042,0.357,1.63c0.005,0.593-0.075,1.222-0.431,1.971c-0.79-0.252-1.304-0.625-1.733-1.034
							c-0.419-0.413-0.73-0.873-0.945-1.375c-0.215-0.502-0.338-1.043-0.354-1.631C31.173,119.257,31.251,118.628,31.604,117.88z"/>
					</g>
					<g>
						<path style="fill:#BACAD1;" d="M48.785,196.369c0.896,1.291,1.605,2.521,2.33,3.719l2.126,3.525l2.181,3.49
							c0.74,1.188,1.514,2.378,2.256,3.765c-1.524-0.411-2.853-1.224-4.026-2.205c-1.167-0.991-2.17-2.175-2.968-3.482
							c-0.8-1.307-1.401-2.736-1.755-4.226C48.588,199.465,48.465,197.913,48.785,196.369z"/>
					</g>
					<g>
						<path style="fill:#BACAD1;" d="M96.176,52.011c0.621,0.831,0.943,1.663,1.175,2.494c0.22,0.831,0.323,1.663,0.324,2.494
							c0.002,0.831-0.1,1.663-0.32,2.494c-0.231,0.831-0.555,1.663-1.179,2.494c-0.625-0.831-0.948-1.663-1.179-2.494
							c-0.22-0.831-0.323-1.663-0.32-2.494c0.002-0.831,0.104-1.663,0.324-2.494C95.233,53.674,95.556,52.843,96.176,52.011z"/>
					</g>
					<g>
						<path style="fill:#BACAD1;" d="M112.198,188.343c0.725,0.561,1.155,1.172,1.497,1.798c0.329,0.628,0.543,1.276,0.657,1.94
							c0.115,0.664,0.126,1.346,0.022,2.048c-0.116,0.703-0.322,1.422-0.825,2.191c-0.729-0.561-1.16-1.171-1.5-1.798
							c-0.329-0.628-0.543-1.276-0.653-1.941c-0.111-0.665-0.122-1.347-0.018-2.049C111.493,189.83,111.699,189.111,112.198,188.343
							z"/>
					</g>
					<g>
						<path style="fill:#BACAD1;" d="M95.511,214.291c0.675,0.848,1.052,1.715,1.339,2.587c0.275,0.873,0.433,1.753,0.49,2.64
							c0.058,0.887,0.011,1.78-0.153,2.68c-0.176,0.901-0.443,1.808-1.011,2.734c-0.679-0.848-1.057-1.714-1.343-2.587
							c-0.275-0.873-0.433-1.753-0.486-2.64c-0.054-0.887-0.007-1.78,0.157-2.681C94.681,216.124,94.947,215.217,95.511,214.291z"/>
					</g>
					<g>
						<path style="fill:#BACAD1;" d="M124.74,295.435c0.727,1.164,1.156,2.355,1.496,3.554c0.328,1.2,0.538,2.41,0.648,3.63
							c0.111,1.219,0.117,2.448,0.007,3.687c-0.122,1.24-0.336,2.488-0.849,3.763c-0.731-1.164-1.161-2.355-1.5-3.554
							c-0.327-1.2-0.538-2.41-0.644-3.63c-0.107-1.22-0.113-2.448-0.003-3.687C124.018,297.957,124.23,296.709,124.74,295.435z"/>
					</g>
					<g>
						<path style="fill:#BACAD1;" d="M112.138,336.001c0.727,0.81,1.157,1.657,1.499,2.514c0.329,0.859,0.542,1.734,0.654,2.62
							c0.113,0.886,0.122,1.786,0.015,2.7c-0.119,0.915-0.329,1.842-0.838,2.807c-0.731-0.809-1.162-1.656-1.503-2.514
							c-0.329-0.859-0.542-1.734-0.65-2.621c-0.109-0.887-0.118-1.786-0.011-2.701C111.424,337.892,111.633,336.965,112.138,336.001
							z"/>
					</g>
					<g>
						<path style="fill:#BACAD1;" d="M108.148,120.515c0.451,1.725,0.606,3.419,0.671,5.105c0.053,1.685-0.012,3.358-0.176,5.02
							c-0.164,1.663-0.432,3.316-0.817,4.956c-0.397,1.64-0.885,3.27-1.672,4.871c-0.455-1.725-0.611-3.42-0.675-5.105
							c-0.052-1.685,0.012-3.357,0.18-5.02c0.168-1.662,0.436-3.315,0.821-4.956C106.877,123.746,107.364,122.116,108.148,120.515z"
							/>
					</g>
				</g>
				<g>
					<g>
						<path style="fill:#BACAD1;" d="M223.328,30.047c0.88,1.891,1.501,3.795,2.073,5.701c0.559,1.908,1.04,3.821,1.462,5.747
							c0.422,1.926,0.781,3.866,1.067,5.833c0.275,1.971,0.501,3.961,0.484,6.048c-1.178-1.724-2.036-3.569-2.767-5.452
							c-0.719-1.887-1.288-3.823-1.715-5.79c-0.427-1.966-0.715-3.963-0.846-5.979C222.966,34.139,222.977,32.105,223.328,30.047z"
							/>
					</g>
					<g>
						<path style="fill:#BACAD1;" d="M208.575,22.748c0.722,0.499,1.149,1.051,1.489,1.619c0.327,0.57,0.539,1.162,0.651,1.771
							c0.113,0.609,0.123,1.237,0.018,1.886c-0.117,0.651-0.324,1.318-0.828,2.04c-0.725-0.498-1.154-1.05-1.493-1.618
							c-0.327-0.57-0.539-1.162-0.648-1.772c-0.109-0.61-0.119-1.238-0.014-1.887C207.869,24.136,208.075,23.468,208.575,22.748z"/>
					</g>
					<g>
						<path style="fill:#BACAD1;" d="M231.853,96.572c0.903,0.531,1.532,1.18,2.078,1.865c0.535,0.689,0.962,1.425,1.296,2.2
							c0.335,0.775,0.573,1.591,0.703,2.454c0.12,0.867,0.155,1.77-0.086,2.792c-0.907-0.53-1.536-1.178-2.082-1.863
							c-0.535-0.689-0.962-1.425-1.292-2.202c-0.331-0.777-0.569-1.593-0.7-2.455C231.651,98.495,231.615,97.592,231.853,96.572z"/>
					</g>
					<g>
						<path style="fill:#BACAD1;" d="M266.508,46.69c0.642,2.449,0.907,4.928,1.036,7.409c0.11,2.48,0.038,4.964-0.198,7.431
							c-0.235,2.467-0.639,4.919-1.219,7.333c-0.598,2.41-1.334,4.793-2.435,7.074c-0.131-2.528-0.021-4.979,0.102-7.421
							c0.14-2.438,0.332-4.858,0.567-7.274c0.234-2.416,0.507-4.828,0.835-7.248C265.543,51.574,265.9,49.146,266.508,46.69z"/>
					</g>
					<g>
						<path style="fill:#BACAD1;" d="M256.461,165.075c0.691,1.242,1.054,2.529,1.295,3.824c0.228,1.296,0.306,2.604,0.251,3.906
							c-0.054,1.302-0.246,2.598-0.586,3.869c-0.351,1.27-0.825,2.521-1.626,3.697c-0.436-1.353-0.609-2.641-0.723-3.917
							c-0.102-1.273-0.119-2.528-0.062-3.78c0.056-1.252,0.182-2.501,0.394-3.76C255.63,167.654,255.913,166.385,256.461,165.075z"
							/>
					</g>
					<g>
						<path style="fill:#BACAD1;" d="M251.805,253.531c0.564,0.873,0.83,1.725,1.007,2.572c0.164,0.846,0.211,1.684,0.157,2.516
							c-0.053,0.831-0.211,1.656-0.486,2.473c-0.286,0.816-0.664,1.626-1.343,2.416c-0.568-0.873-0.835-1.726-1.01-2.572
							c-0.164-0.846-0.211-1.684-0.153-2.515c0.057-0.831,0.215-1.656,0.49-2.472C250.754,255.131,251.131,254.321,251.805,253.531z
							"/>
					</g>
					<g>
						<path style="fill:#BACAD1;" d="M253.136,330.681c0.621,1.718,0.943,3.436,1.175,5.154c0.22,1.718,0.322,3.436,0.324,5.154
							c0.002,1.718-0.1,3.436-0.32,5.154c-0.232,1.718-0.555,3.436-1.18,5.154c-0.625-1.718-0.948-3.436-1.18-5.154
							c-0.22-1.718-0.322-3.436-0.32-5.154c0.002-1.718,0.104-3.436,0.324-5.154C252.193,334.117,252.515,332.399,253.136,330.681z"
							/>
					</g>
					<g>
						<path style="fill:#BACAD1;" d="M236.403,375.223c0.419,1.256,0.602,2.424,0.746,3.575c0.132,1.149,0.198,2.275,0.213,3.401
							c0.016,1.126-0.025,2.253-0.13,3.405c-0.116,1.155-0.273,2.326-0.667,3.592c-0.835-1.033-1.33-2.181-1.68-3.356
							c-0.339-1.178-0.51-2.391-0.522-3.606c-0.012-1.215,0.13-2.432,0.442-3.617C235.129,377.435,235.596,376.276,236.403,375.223z
							"/>
					</g>
					<g>
						<path style="fill:#BACAD1;" d="M265.107,285.455c0.621,1.053,0.943,2.106,1.175,3.159c0.22,1.053,0.322,2.106,0.324,3.159
							c0.002,1.053-0.1,2.106-0.32,3.159c-0.231,1.053-0.555,2.106-1.179,3.159c-0.625-1.053-0.948-2.106-1.18-3.159
							c-0.22-1.053-0.323-2.106-0.32-3.159c0.002-1.053,0.104-2.106,0.324-3.159C264.164,287.561,264.486,286.508,265.107,285.455z"
							/>
					</g>
				</g>
				<g>
					<g>
						<path style="fill:#BACAD1;" d="M527.796,425.124c-0.736-1.158-1.176-2.346-1.526-3.542c-0.338-1.197-0.558-2.406-0.678-3.624
							c-0.121-1.218-0.137-2.447-0.037-3.687c0.112-1.241,0.315-2.491,0.818-3.77c0.74,1.158,1.181,2.345,1.53,3.541
							c0.337,1.197,0.558,2.406,0.674,3.625c0.117,1.219,0.133,2.447,0.033,3.687C528.497,422.596,528.295,423.845,527.796,425.124z
							"/>
					</g>
					<g>
						<path style="fill:#BACAD1;" d="M538.45,403.175c-0.675-0.732-1.052-1.485-1.339-2.244c-0.275-0.76-0.433-1.529-0.49-2.305
							c-0.058-0.776-0.011-1.559,0.153-2.351c0.175-0.792,0.442-1.591,1.01-2.412c0.679,0.731,1.056,1.484,1.343,2.244
							c0.275,0.76,0.433,1.529,0.486,2.305c0.054,0.776,0.007,1.559-0.157,2.351C539.279,401.556,539.013,402.355,538.45,403.175z"
							/>
					</g>
					<g>
						<path style="fill:#BACAD1;" d="M521.164,365.265c-0.621-0.499-0.943-0.998-1.175-1.496c-0.22-0.499-0.323-0.998-0.324-1.496
							c-0.002-0.499,0.1-0.998,0.32-1.496c0.231-0.499,0.555-0.998,1.18-1.496c0.625,0.499,0.948,0.998,1.179,1.496
							c0.22,0.499,0.323,0.998,0.32,1.496c-0.002,0.499-0.104,0.998-0.324,1.496C522.107,364.267,521.784,364.766,521.164,365.265z"
							/>
					</g>
					<g>
						<path style="fill:#BACAD1;" d="M548.432,300.087c0.564,1.032,0.831,2.047,1.007,3.058c0.164,1.01,0.211,2.013,0.157,3.011
							c-0.053,0.998-0.211,1.99-0.486,2.975c-0.287,0.985-0.665,1.964-1.344,2.927c-0.568-1.032-0.836-2.048-1.011-3.058
							c-0.164-1.01-0.211-2.013-0.153-3.011c0.057-0.997,0.215-1.99,0.49-2.975C547.38,302.03,547.757,301.05,548.432,300.087z"/>
					</g>
					<g>
						<path style="fill:#BACAD1;" d="M527.217,254.186c0.774,0.96,1.253,1.966,1.643,2.985c0.378,1.021,0.64,2.059,0.802,3.113
							c0.163,1.053,0.222,2.123,0.165,3.21c-0.068,1.089-0.227,2.191-0.685,3.339c-0.778-0.96-1.258-1.965-1.647-2.984
							c-0.378-1.021-0.64-2.059-0.798-3.114c-0.159-1.054-0.218-2.124-0.161-3.211C526.606,256.436,526.764,255.333,527.217,254.186
							z"/>
					</g>
					<g>
						<path style="fill:#BACAD1;" d="M568.385,155.764c-0.372-0.903-0.458-1.718-0.458-2.507c0.011-0.785,0.135-1.536,0.355-2.257
							c0.219-0.721,0.539-1.412,0.971-2.067c0.443-0.652,0.974-1.278,1.792-1.815c0.375,0.904,0.463,1.72,0.462,2.508
							c-0.012,0.785-0.135,1.536-0.359,2.256c-0.223,0.72-0.543,1.41-0.975,2.066C569.729,154.6,569.2,155.226,568.385,155.764z"/>
					</g>
					<g>
						<path style="fill:#BACAD1;" d="M584.347,108.543c-0.423-0.695-0.562-1.296-0.616-1.868c-0.042-0.568,0.027-1.1,0.191-1.599
							c0.164-0.5,0.428-0.966,0.802-1.395c0.386-0.426,0.859-0.822,1.618-1.123c0.426,0.696,0.567,1.297,0.62,1.869
							c0.042,0.568-0.027,1.1-0.195,1.598c-0.168,0.498-0.431,0.965-0.806,1.394C585.574,107.844,585.102,108.241,584.347,108.543z"
							/>
					</g>
					<g>
						<path style="fill:#BACAD1;" d="M475.214,24.107c0.997,0.612,1.726,1.357,2.375,2.142c0.638,0.79,1.17,1.633,1.613,2.52
							c0.443,0.887,0.792,1.821,1.035,2.807c0.233,0.991,0.384,2.023,0.266,3.189c-1-0.61-1.731-1.355-2.379-2.14
							c-0.638-0.79-1.17-1.633-1.609-2.522c-0.439-0.889-0.788-1.823-1.032-2.808C475.251,26.302,475.099,25.271,475.214,24.107z"/>
					</g>
					<g>
						<path style="fill:#BACAD1;" d="M494.37,33.48c1.062,0.785,1.854,1.698,2.565,2.649c0.7,0.957,1.294,1.965,1.797,3.016
							c0.504,1.051,0.913,2.147,1.216,3.293c0.293,1.151,0.502,2.342,0.44,3.663c-1.065-0.783-1.859-1.695-2.569-2.648
							c-0.7-0.957-1.294-1.965-1.793-3.017c-0.5-1.053-0.909-2.148-1.212-3.295C494.521,35.989,494.311,34.799,494.37,33.48z"/>
					</g>
					<g>
						<path style="fill:#BACAD1;" d="M501.158,89.279c0.985,0.704,1.68,1.572,2.262,2.491c0.57,0.924,1.003,1.913,1.307,2.939
							c0.304,1.026,0.475,2.092,0.496,3.178c0.01,1.087-0.106,2.194-0.557,3.32c-0.782-0.925-1.293-1.859-1.744-2.798
							c-0.439-0.94-0.791-1.886-1.073-2.853c-0.283-0.967-0.499-1.953-0.639-2.981C501.082,91.541,501.004,90.479,501.158,89.279z"
							/>
					</g>
					<g>
						<path style="fill:#BACAD1;" d="M536.478,77.281c0.918,1.346,1.501,2.8,1.944,4.283c0.431,1.486,0.696,3.01,0.807,4.545
							c0.112,1.535,0.068,3.081-0.146,4.614c-0.226,1.532-0.596,3.054-1.316,4.517c-0.527-1.541-0.806-3.029-1.043-4.508
							c-0.225-1.477-0.384-2.941-0.487-4.408c-0.104-1.468-0.156-2.938-0.144-4.433C536.118,80.393,536.181,78.881,536.478,77.281z"
							/>
					</g>
					<g>
						<path style="fill:#BACAD1;" d="M536.387,177.062c0.809,0.861,1.288,1.841,1.63,2.848c0.33,1.011,0.497,2.059,0.514,3.108
							c0.018,1.05-0.118,2.102-0.419,3.122c-0.311,1.018-0.763,2.011-1.55,2.895c-0.445-1.094-0.647-2.095-0.802-3.079
							c-0.144-0.981-0.217-1.937-0.229-2.895c-0.013-0.958,0.032-1.915,0.147-2.901
							C535.807,179.174,535.978,178.168,536.387,177.062z"/>
					</g>
					<g>
						<path style="fill:#BACAD1;" d="M520.563,190.338c0.773,0.9,1.251,1.848,1.641,2.81c0.378,0.964,0.639,1.946,0.801,2.944
							c0.163,0.998,0.221,2.013,0.165,3.046c-0.068,1.035-0.227,2.085-0.684,3.183c-0.777-0.9-1.256-1.847-1.645-2.809
							c-0.377-0.964-0.639-1.946-0.797-2.945c-0.159-0.999-0.217-2.014-0.161-3.047
							C519.953,192.485,520.111,191.435,520.563,190.338z"/>
					</g>
				</g>
				<g>
					<g>
						<path style="fill:#BACAD1;" d="M667.543,153.088c0.992,1.339,1.694,2.753,2.31,4.19c0.604,1.44,1.094,2.91,1.486,4.405
							c0.393,1.495,0.685,3.017,0.863,4.568c0.167,1.554,0.245,3.132,0.031,4.785c-0.995-1.338-1.699-2.752-2.314-4.189
							c-0.603-1.44-1.094-2.91-1.482-4.406c-0.389-1.496-0.681-3.018-0.859-4.569C667.412,156.318,667.333,154.74,667.543,153.088z"
							/>
					</g>
					<g>
						<path style="fill:#BACAD1;" d="M686.806,181.041c0.508,1.065,0.719,2.098,0.84,3.121c0.109,1.022,0.102,2.031-0.006,3.029
							c-0.107,0.998-0.319,1.985-0.646,2.958c-0.34,0.973-0.77,1.935-1.501,2.865c-0.512-1.066-0.724-2.099-0.844-3.122
							c-0.109-1.022-0.102-2.031,0.01-3.028c0.111-0.998,0.322-1.984,0.65-2.958C685.65,182.934,686.08,181.971,686.806,181.041z"/>
					</g>
					<g>
						<path style="fill:#BACAD1;" d="M674.853,214.947c0.778,0.834,1.262,1.72,1.657,2.622c0.383,0.904,0.651,1.828,0.819,2.77
							c0.169,0.942,0.234,1.902,0.185,2.882c-0.061,0.982-0.213,1.981-0.662,3.032c-0.782-0.833-1.267-1.719-1.661-2.621
							c-0.383-0.904-0.651-1.828-0.815-2.771c-0.165-0.942-0.231-1.902-0.18-2.883C674.258,216.995,674.409,215.997,674.853,214.947
							z"/>
					</g>
					<g>
						<path style="fill:#BACAD1;" d="M700.071,231.583c0.423,1.356,0.589,2.644,0.699,3.919c0.098,1.273,0.113,2.526,0.06,3.777
							c-0.052,1.251-0.176,2.498-0.383,3.757c-0.219,1.26-0.497,2.529-1.04,3.844c-0.704-1.237-1.075-2.525-1.319-3.821
							c-0.232-1.297-0.313-2.607-0.254-3.911c0.058-1.303,0.252-2.601,0.596-3.873C698.786,234.006,699.266,232.756,700.071,231.583
							z"/>
					</g>
					<g>
						<path style="fill:#BACAD1;" d="M683.444,265.503c0.779,0.896,1.263,1.84,1.658,2.8c0.383,0.961,0.651,1.942,0.818,2.94
							c0.169,0.997,0.234,2.012,0.183,3.046c-0.062,1.036-0.215,2.086-0.665,3.187c-0.782-0.895-1.268-1.839-1.662-2.799
							c-0.383-0.961-0.651-1.942-0.815-2.94c-0.165-0.998-0.23-2.012-0.179-3.046C682.846,267.653,682.998,266.602,683.444,265.503z
							"/>
					</g>
					<g>
						<path style="fill:#BACAD1;" d="M698.121,304.073c0.729,1.105,1.16,2.239,1.503,3.38c0.33,1.143,0.543,2.297,0.655,3.461
							c0.113,1.164,0.122,2.337,0.014,3.522c-0.12,1.186-0.331,2.38-0.842,3.603c-0.733-1.105-1.165-2.238-1.506-3.38
							c-0.33-1.143-0.543-2.297-0.651-3.461c-0.109-1.164-0.118-2.338-0.01-3.522C697.404,306.49,697.614,305.296,698.121,304.073z"
							/>
					</g>
					<g>
						<path style="fill:#BACAD1;" d="M689.423,339.328c0.825,1.053,1.356,2.16,1.799,3.283c0.431,1.125,0.746,2.272,0.961,3.437
							c0.217,1.165,0.33,2.349,0.328,3.554c-0.013,1.207-0.117,2.431-0.517,3.709c-0.829-1.052-1.361-2.159-1.803-3.283
							c-0.43-1.125-0.746-2.272-0.958-3.438c-0.213-1.165-0.326-2.349-0.324-3.554C688.924,341.829,689.027,340.605,689.423,339.328
							z"/>
					</g>
				</g>
			</g>
		</g>
	</g>
	<g>
		<g>
			<path style="fill:#8ABEE2;" d="M-0.048,498.14l2.78-189.739c24.605-15.026,63.288-12.669,82.805,8.551
				c22.752,24.738,24.812,66.248,53.298,84.086c11.476,7.186,25.396,9.09,38.869,10.439c31.315,3.136,63.356,4.285,92.908,15.11
				c29.552,10.825,58.132,42.501,64.329,73.357L-0.048,498.14z"/>
		</g>
		<g>
			<path style="fill:#8ABEE2;" d="M394.798,499.854c-0.004-21.03,25.204-44.184,52.72-45.054c16.319-0.516,32.445,4.61,48.676,3.22
				c22.822-1.955,40.117-15.97,56.102-28.562c24.075-18.964,50.194-36.765,80.379-49.661
				c30.185-12.896,83.789-21.392,118.274-19.353L749.952,500L394.798,499.854z"/>
		</g>
		<g>
			<path style="fill:#8ABEE2;" d="M560.644,0.411c-2.429,15.687,14.151,34.768,24.333,46.946s25.743,19.685,41.613,20.073
				c7.863,0.192,15.755-1.27,23.569-0.367c10.608,1.225,20.612,7.003,26.974,15.579c6.516,8.783,9.064,19.826,14.027,29.571
				c10.001,19.638,36.039,34.092,57.795,30.582l0.332-142.074L560.644,0.411z"/>
		</g>
		<g>
			<path style="fill:#8ABEE2;" d="M116.906,0.411c1.506,9.722-8.77,21.546-15.079,29.094c-6.31,7.547-15.954,12.199-25.788,12.44
				c-4.873,0.119-9.764-0.787-14.606-0.228c-6.574,0.759-12.774,4.34-16.716,9.655c-4.038,5.443-5.617,12.287-8.693,18.326
				c-6.198,12.17-21.883,21.44-35.366,19.264L0,0.603L116.906,0.411z"/>
		</g>
	</g>
	<g>
		<defs>
			<rect id="SVGID_00000018921790467093284480000017883104263514630024_" width="750" height="500"/>
		</defs>
		<clipPath id="SVGID_00000150820176534506317180000005300392440871515008_">
			<use xlink:href="#SVGID_00000018921790467093284480000017883104263514630024_"  style="overflow:visible;"/>
		</clipPath>
		<g style="clip-path:url(#SVGID_00000150820176534506317180000005300392440871515008_);">
			<g>
				<path style="fill:#5769F9;" d="M22.743,421.498c-11.446-28.207-11.336-60.908,0.3-89.037
					c11.963-28.92,34.803-51.724,57.079-73.707c16.12,34.417,18.107,75.204,5.408,111.025c-2.256,6.365-5.548,13.178-11.833,15.648"
					/>
			</g>
			<g>
				<g>
					<path style="fill:#263841;" d="M46.578,406.28c-0.002-12.327,0.726-24.668,2.171-36.929
						c1.418-12.266,3.543-24.451,6.266-36.499c2.76-12.04,6.122-23.944,10.155-35.614c4.006-11.679,8.696-23.117,14.038-34.226
						c-4.631,11.424-8.814,23.004-12.556,34.717c-3.715,11.721-6.975,23.581-9.687,35.567c-2.748,11.978-4.945,24.08-6.673,36.254
						C48.591,381.728,47.349,393.978,46.578,406.28z"/>
				</g>
				<g>
					<path style="fill:#263841;" d="M26.994,338.006c2.072,2.22,3.999,4.534,5.89,6.873c1.9,2.332,3.725,4.716,5.551,7.1
						c1.796,2.406,3.592,4.813,5.317,7.277c1.735,2.457,3.434,4.944,5.002,7.544c-2.215-2.077-4.261-4.3-6.231-6.583
						c-1.981-2.276-3.852-4.639-5.682-7.033c-1.801-2.416-3.564-4.861-5.212-7.388C29.971,343.277,28.39,340.703,26.994,338.006z"/>
				</g>
				<g>
					<path style="fill:#263841;" d="M30.755,320.41c2.22,2.839,4.271,5.781,6.263,8.76c2.003,2.972,3.906,6.005,5.79,9.049
						c1.852,3.064,3.682,6.141,5.413,9.279c1.742,3.131,3.423,6.3,4.934,9.572c-2.222-2.838-4.274-5.779-6.266-8.758
						c-2.002-2.972-3.905-6.005-5.787-9.051c-1.85-3.065-3.68-6.143-5.411-9.281C33.951,326.848,32.269,323.681,30.755,320.41z"/>
				</g>
				<g>
					<path style="fill:#263841;" d="M49.184,293.211c1.265,1.867,2.349,3.814,3.37,5.788c1.032,1.969,1.957,3.985,2.861,6.009
						c0.87,2.04,1.716,4.089,2.456,6.185c0.751,2.091,1.438,4.211,1.942,6.41c-1.267-1.866-2.353-3.812-3.372-5.786
						c-1.032-1.969-1.956-3.985-2.858-6.01c-0.868-2.041-1.714-4.09-2.454-6.187C50.378,297.529,49.69,295.409,49.184,293.211z"/>
				</g>
				<g>
					<path style="fill:#263841;" d="M58.427,284.812c0.871,1.189,1.556,2.445,2.176,3.725c0.619,1.28,1.174,2.583,1.654,3.913
						c0.487,1.328,0.893,2.685,1.239,4.064c0.344,1.38,0.621,2.783,0.711,4.255c-0.873-1.188-1.559-2.444-2.178-3.724
						c-0.618-1.28-1.174-2.583-1.651-3.914c-0.483-1.329-0.892-2.685-1.236-4.065C58.797,287.686,58.519,286.283,58.427,284.812z"/>
				</g>
				<g>
					<path style="fill:#263841;" d="M52.185,355.208c2.285-3.35,4.825-6.513,7.506-9.549c2.673-3.046,5.521-5.934,8.465-8.719
						c2.97-2.757,6.039-5.41,9.254-7.877c3.206-2.476,6.529-4.803,10.023-6.86l-9.025,8.06c-2.987,2.691-5.968,5.38-8.886,8.136
						c-2.944,2.729-5.822,5.527-8.704,8.33L52.185,355.208z"/>
				</g>
				<g>
					<path style="fill:#263841;" d="M56.222,331.3c1.863-2.614,3.966-5.039,6.194-7.34c2.22-2.311,4.599-4.464,7.06-6.517
						c2.484-2.025,5.053-3.948,7.745-5.686c2.684-1.747,5.467-3.347,8.39-4.674c-2.483,2.034-4.994,3.976-7.48,5.942
						c-2.478,1.975-4.956,3.937-7.385,5.961c-2.452,1.995-4.852,4.053-7.265,6.107C61.077,327.156,58.691,329.25,56.222,331.3z"/>
				</g>
				<g>
					<path style="fill:#263841;" d="M48.699,389.866c1.582-3.527,3.649-6.834,5.968-9.936c2.312-3.115,4.912-6.002,7.634-8.748
						c2.75-2.721,5.626-5.301,8.622-7.726c2.989-2.434,6.068-4.744,9.274-6.896c-2.671,2.79-5.465,5.429-8.243,8.068
						c-2.77,2.648-5.555,5.262-8.241,7.968c-2.712,2.679-5.321,5.45-7.837,8.31C53.369,383.776,50.994,386.761,48.699,389.866z"/>
				</g>
			</g>
			<g>
				<g>
					<path style="fill:#5769F9;" d="M114.618,323.354c-0.493-10.387-0.943-21.084,2.538-30.883
						c3.481-9.799,11.902-18.596,22.28-19.253c2.032,9.109-0.118,18.818-4.585,27.012c-4.467,8.195-11.112,15.015-18.31,20.955
						c-0.482,0.398-1.007,1.065-0.633,1.566c0.374,0.501,0.932-0.799,0.382-0.503"/>
				</g>
				<g>
					<path style="fill:#263841;" d="M115.991,320.564c1.261-4.734,2.728-9.402,4.386-14.012c1.646-4.614,3.525-9.153,5.649-13.586
						c2.157-4.415,4.565-8.727,7.381-12.771c2.801-4.046,5.981-7.848,9.622-11.134c-3.028,3.852-5.797,7.842-8.313,11.984
						c-2.505,4.148-4.793,8.419-6.891,12.791c-2.131,4.356-4.069,8.814-6.002,13.285
						C119.902,311.599,118.031,316.109,115.991,320.564z"/>
				</g>
			</g>
			<g>
				<g>
					<path style="fill:#BDDAEF;" d="M12.708,516.904c21.742,2.33,41.989-14.649,63.461-18.779
						c6.304-1.212,13.015-3.025,17.068-8.003c4.053-4.978,3.436-14.017-2.563-16.3c9.5-2.809,18.514-7.252,26.527-13.077
						c2.271-1.65,4.692-3.927,4.375-6.716c-0.231-2.027-1.871-3.579-3.497-4.811c-5.776-4.377-12.763-7.14-19.97-7.898
						c17.288-2.065,34.29-6.519,50.371-13.194c5.586-2.319,11.293-5.087,14.921-9.927c3.628-4.84,4.424-12.316,0.222-16.667
						c-1.955-2.024-4.67-3.108-7.344-3.984c-5.679-1.861-11.58-3.045-17.537-3.518c10.691-2.216,20.9-6.725,29.74-13.133
						c4.737-3.435,9.527-8.732,8.022-14.386c-1.545-5.805-8.815-7.978-14.793-7.394c-5.978,0.583-11.896,2.89-17.83,1.96
						c5.619-5.726,11.483-11.889,13.196-19.727c1.713-7.838-2.752-17.582-10.732-18.412c-3.208-0.334-6.379,0.784-9.352,2.035
						c-23.153,9.745-41.821,28.714-53.472,50.97c-0.804,1.536-1.649,3.168-3.134,4.063c-3.721,2.245-8.407-1.754-9.491-5.962
						c-1.084-4.208-0.283-8.787-1.741-12.882c-0.439-1.234-1.135-2.456-2.277-3.099c-2.644-1.488-5.78,0.8-7.841,3.027
						c-15.329,16.561-23.938,38.079-32.222,59.07c-1.811-3.553-3.623-7.107-5.435-10.66c-0.687-1.347-1.569-2.847-3.055-3.124
						c-1.223-0.228-2.413,0.473-3.421,1.203C7.124,413.212,1.71,422.08-0.002,431.531c-1.776,9.811-6.662,24.368-8.24,31.501
						c-2.491,11.259-3.648,22.696-0.998,33.919C-9.239,496.951-15.225,513.911,12.708,516.904z"/>
				</g>
				<g>
					<g>
						<path style="fill:#263841;" d="M7.032,497.375c7.712-15.028,16.437-29.564,26.209-43.407
							c4.856-6.943,10.06-13.646,15.471-20.182c5.444-6.51,11.19-12.772,17.188-18.789c6.049-5.968,12.365-11.672,18.979-17.011
							c6.647-5.296,13.521-10.32,20.734-14.816c14.366-9.053,29.878-16.373,46.131-21.029c-15.702,6.232-30.56,14.224-44.423,23.641
							c-6.908,4.741-13.633,9.745-20.043,15.134c-6.443,5.347-12.643,10.988-18.56,16.915c-5.968,5.879-11.649,12.05-17.128,18.399
							c-5.513,6.323-10.728,12.905-15.84,19.574C25.583,469.192,16.177,483.176,7.032,497.375z"/>
					</g>
					<g>
						<path style="fill:#263841;" d="M23.015,465.028c-1.842-2.756-3.134-5.805-4.1-8.947c-0.951-3.148-1.545-6.407-1.79-9.691
							c-0.246-3.284-0.138-6.595,0.34-9.849c0.492-3.25,1.324-6.456,2.746-9.452c0.216,3.303,0.265,6.477,0.394,9.63
							c0.116,3.149,0.281,6.265,0.507,9.376c0.228,3.112,0.523,6.218,0.871,9.35C22.318,458.585,22.738,461.73,23.015,465.028z"/>
					</g>
					<g>
						<path style="fill:#263841;" d="M58.055,424.456c-0.805-3.09-1.113-6.221-1.201-9.35c-0.072-3.129,0.114-6.257,0.53-9.354
							c0.416-3.097,1.069-6.162,1.969-9.16c0.915-2.993,2.045-5.93,3.647-8.694c0.008,3.192-0.266,6.26-0.563,9.312
							c-0.312,3.047-0.679,6.065-1.09,9.077c-0.41,3.012-0.858,6.02-1.367,9.04C59.455,418.349,58.905,421.381,58.055,424.456z"/>
					</g>
					<g>
						<path style="fill:#263841;" d="M101.588,385.237c0.02-4.177,0.884-8.318,2.222-12.292c1.362-3.97,3.258-7.77,5.594-11.274
							c2.334-3.505,5.116-6.715,8.259-9.497c3.155-2.764,6.649-5.149,10.501-6.767c-2.896,2.997-5.685,5.901-8.257,8.971
							c-2.584,3.051-4.974,6.219-7.177,9.513c-2.201,3.296-4.208,6.72-6.034,10.277
							C104.847,377.719,103.239,381.411,101.588,385.237z"/>
					</g>
					<g>
						<path style="fill:#263841;" d="M42.337,444.262c3.515-0.079,6.901-0.009,10.27-0.037c3.365-0.012,6.698-0.087,10.029-0.24
							c3.331-0.155,6.657-0.384,10.008-0.678c3.357-0.28,6.722-0.656,10.231-0.892c-3.012,1.827-6.306,3.08-9.684,3.99
							c-3.384,0.896-6.871,1.419-10.373,1.576c-3.502,0.158-7.022-0.046-10.473-0.631C48.897,446.749,45.504,445.802,42.337,444.262
							z"/>
					</g>
					<g>
						<path style="fill:#263841;" d="M79.601,407.011c2.987,0.129,5.811,0.384,8.621,0.543c2.805,0.174,5.577,0.285,8.351,0.321
							c2.774,0.034,5.547-0.002,8.355-0.1c2.813-0.085,5.643-0.262,8.634-0.305c-2.51,1.639-5.314,2.703-8.195,3.419
							c-2.887,0.702-5.871,1.028-8.848,0.984c-2.977-0.042-5.95-0.448-8.817-1.228C84.841,409.85,82.067,408.712,79.601,407.011z"/>
					</g>
				</g>
			</g>
			<g>
				<g>
					<path style="fill:#263841;" d="M695.233-9.951c0.997,6.183,0.098,12.602-1.597,18.652c-1.738,6.069-4.24,11.864-6.849,17.518
						c-2.561,5.692-5.393,11.27-8.367,16.785c-3.019,5.492-6.324,10.844-9.901,16.025c-3.668,5.116-7.577,10.087-11.961,14.645
						c-4.403,4.535-9.129,8.779-14.33,12.382c-10.265,7.317-22.29,12.449-34.732,13.668c12.14-2.878,23.248-8.634,32.873-16.176
						c2.422-1.868,4.714-3.897,6.983-5.942c2.223-2.098,4.404-4.241,6.441-6.521c4.158-4.484,7.931-9.332,11.454-14.354
						c3.55-5.008,6.799-10.241,9.882-15.582c3.116-5.325,5.989-10.802,8.862-16.294c2.838-5.513,5.664-10.997,7.786-16.759
						C693.933,2.361,695.341-3.705,695.233-9.951z"/>
				</g>
				<g>
					<path style="fill:#263841;" d="M643.112,83.862c1.521,3.635,2.099,7.645,2.031,11.632c-0.09,3.993-0.876,7.986-2.274,11.747
						c-1.396,3.762-3.411,7.299-5.953,10.38c-2.553,3.063-5.614,5.719-9.145,7.472c2.468-3.055,4.691-6.081,6.578-9.29
						c1.899-3.192,3.487-6.517,4.772-9.957c1.281-3.441,2.253-6.997,2.902-10.654C642.695,91.531,642.987,87.786,643.112,83.862z"/>
				</g>
				<g>
					<path style="fill:#263841;" d="M630.615,89.62c-2.529-1.251-4.854-2.532-7.206-3.715c-2.341-1.193-4.677-2.307-7.048-3.348
						c-2.371-1.039-4.77-2.008-7.231-2.927c-2.461-0.934-4.976-1.783-7.607-2.807c2.757-0.639,5.594-0.623,8.371-0.244
						c2.778,0.393,5.505,1.183,8.077,2.318c2.573,1.134,4.998,2.61,7.164,4.392C627.29,85.082,629.219,87.161,630.615,89.62z"/>
				</g>
				<g>
					<path style="fill:#263841;" d="M656.438,65.764c-2.324-0.319-4.446-0.861-6.545-1.412c-2.091-0.565-4.135-1.169-6.171-1.805
						c-2.036-0.634-4.059-1.305-6.098-2.034c-2.038-0.744-4.09-1.512-6.179-2.581c2.276-0.586,4.567-0.657,6.827-0.497
						c2.259,0.176,4.491,0.617,6.646,1.296c2.156,0.678,4.24,1.589,6.195,2.734C653.06,62.624,654.901,63.988,656.438,65.764z"/>
				</g>
				<g>
					<path style="fill:#263841;" d="M670.142,56.002c2.047,1.796,3.561,4.111,4.669,6.593c1.097,2.493,1.765,5.184,1.993,7.909
						c0.231,2.725,0.017,5.49-0.651,8.131c-0.68,2.633-1.793,5.167-3.519,7.275c0.169-2.709,0.363-5.221,0.404-7.713
						c0.053-2.486-0.021-4.927-0.219-7.36c-0.201-2.433-0.533-4.854-0.997-7.296C671.371,61.088,670.762,58.643,670.142,56.002z"/>
				</g>
				<g>
					<path style="fill:#263841;" d="M678.194,42.159c-2.842-0.673-5.503-1.213-8.169-1.508c-2.657-0.306-5.29-0.391-7.913-0.263
						c-2.623,0.131-5.235,0.469-7.85,1.03c-2.624,0.552-5.22,1.344-7.987,2.284c1.811-2.31,4.293-4.047,6.992-5.268
						c2.71-1.213,5.669-1.9,8.651-2.04c2.981-0.143,5.992,0.256,8.806,1.202C673.529,38.551,676.167,40.039,678.194,42.159z"/>
				</g>
				<g>
					<path style="fill:#263841;" d="M685.952,24.518c2.234,1.812,4.002,4.092,5.448,6.551c1.433,2.469,2.519,5.146,3.239,7.916
						c0.721,2.77,1.072,5.638,1.019,8.492c-0.068,2.852-0.508,5.705-1.586,8.373c-0.583-2.81-1.018-5.479-1.548-8.108
						c-0.516-2.626-1.097-5.199-1.756-7.754c-0.66-2.554-1.402-5.086-2.226-7.633C687.729,29.799,686.811,27.255,685.952,24.518z"/>
				</g>
				<g>
					<path style="fill:#263841;" d="M618.555,96.769c0.964,2.183,1.316,4.543,1.321,6.89c-0.01,2.35-0.401,4.702-1.127,6.943
						c-0.724,2.242-1.791,4.375-3.164,6.283c-1.383,1.897-3.055,3.6-5.123,4.796c0.776-2.251,1.607-4.274,2.36-6.3
						c0.763-2.016,1.467-4.007,2.123-6.014c0.654-2.008,1.254-4.033,1.822-6.113C617.351,101.172,617.865,99.046,618.555,96.769z"/>
				</g>
			</g>
			<g>
				<g>
					<path style="fill:#5769F9;" d="M570.539-0.361c-11.977,3.301-22.555,11.409-28.855,22.117
						c-1.565,2.659-2.696,6.486-0.341,8.478c1.479,1.251,3.655,1.094,5.57,0.806c13.405-2.011,26.348-7.046,37.588-14.623
						c0.72,6.713-8.688,12.577-5.714,18.638c0.846,1.725,2.552,2.86,4.287,3.686c7.798,3.71,17.37,2.51,24.825-1.849
						c7.455-4.359,12.953-11.531,16.667-19.327c-0.36,5.739,3.529,11.182,8.631,13.833c5.102,2.651,11.169,2.875,16.839,1.921
						c19.923-3.349,51.303-26.323,42.939-44.713C679.019-42.082,570.539-0.361,570.539-0.361z"/>
				</g>
				<g>
					<g>
						<path style="fill:#5769F9;" d="M514.354,55.558c-14.439,5.168-24.551,20.497-23.619,35.804
							c7.396-1.59,15.28-4.672,18.755-11.392C513.032,73.12,514.354,55.558,514.354,55.558z"/>
					</g>
					<g>
						<g>
							<path style="fill:#263841;" d="M513.617,56.437c-0.846,3.659-1.985,7.243-3.404,10.734c-1.407,3.495-3.14,6.875-5.199,10.064
								c-2.091,3.168-4.519,6.136-7.351,8.677c-2.815,2.545-6.022,4.692-9.522,6.073c3.102-2.116,5.907-4.524,8.433-7.19
								c2.513-2.675,4.775-5.573,6.768-8.653c2.025-3.063,3.785-6.307,5.456-9.612C510.458,63.217,511.99,59.822,513.617,56.437z"/>
						</g>
						<g>
							<path style="fill:#263841;" d="M493.01,75.506c0.984-0.113,1.883-0.079,2.771-0.042c0.885,0.049,1.748,0.131,2.608,0.239
								c0.861,0.107,1.717,0.242,2.586,0.413c0.87,0.183,1.749,0.375,2.674,0.731c-0.869,0.481-1.791,0.709-2.719,0.841
								c-0.929,0.12-1.868,0.117-2.792-0.001c-0.924-0.118-1.834-0.347-2.704-0.694C494.57,76.634,493.734,76.185,493.01,75.506z"/>
						</g>
						<g>
							<path style="fill:#263841;" d="M494.357,70.135c1.123-0.07,2.161-0.014,3.191,0.031c1.025,0.057,2.031,0.129,3.036,0.211
								c1.005,0.081,2.009,0.174,3.03,0.285c1.023,0.123,2.056,0.238,3.153,0.493c-0.973,0.574-2.028,0.884-3.098,1.079
								c-1.072,0.184-2.166,0.227-3.248,0.136c-1.082-0.09-2.154-0.31-3.181-0.667C496.214,71.334,495.223,70.858,494.357,70.135z"
								/>
						</g>
					</g>
				</g>
				<g>
					<g>
						<path style="fill:#5769F9;" d="M535.151,26.682c-17.08-10.049-37.801-13.746-57.302-10.225
							c-1.055,0.191-2.215,0.47-2.819,1.356c-0.895,1.312-0.061,3.084,0.853,4.382c6.163,8.753,16.353,14.543,27.026,15.356
							C513.583,38.365,535.151,26.682,535.151,26.682z"/>
					</g>
					<g>
						<g>
							<path style="fill:#263841;" d="M532.511,25.701c-4.379,1.032-8.871,1.589-13.378,1.794c-4.51,0.218-9.039,0.036-13.532-0.447
								c-4.49-0.52-8.946-1.345-13.297-2.554c-4.351-1.196-8.608-2.734-12.65-4.711c4.335,1.197,8.656,2.297,13.014,3.194
								c4.359,0.884,8.742,1.608,13.154,2.085c4.408,0.514,8.843,0.776,13.29,0.879C523.562,26.031,528.02,25.913,532.511,25.701z"
								/>
						</g>
						<g>
							<path style="fill:#263841;" d="M508.06,26.699c-0.711,0.912-1.476,1.669-2.235,2.422c-0.765,0.741-1.539,1.45-2.325,2.145
								c-0.786,0.695-1.587,1.372-2.418,2.038c-0.841,0.659-1.69,1.322-2.685,1.911c0.338-1.109,0.9-2.082,1.543-2.992
								c0.652-0.903,1.406-1.726,2.239-2.458c0.833-0.733,1.745-1.377,2.722-1.91C505.884,27.334,506.919,26.897,508.06,26.699z"/>
						</g>
					</g>
				</g>
			</g>
			<g>
				<g>
					<path style="fill:#5769F9;" d="M92.262,499.669c-3.669-10.603-7.362-22.123-3.943-32.809
						c3.419-10.686,17.446-18.401,26.261-11.46c3.819,3.007,6.88,8.465,11.693,7.785c2.524-0.357,4.45-2.442,5.772-4.622
						c6.147-10.135,3.476-23.006,3.986-34.849c0.215-4.986,3.699-11.589,8.255-9.551c3.082,1.379,3.271,5.596,4.858,8.576
						c3.275,6.149,12.771,6.082,18.222,1.745c5.451-4.338,7.968-11.273,10.596-17.725c3.909-9.597,8.596-18.877,14.002-27.718
						c2.758-4.512,5.829-9.037,10.268-11.912c4.438-2.875,10.583-3.721,14.942-0.727c6.413,4.406,5.778,14.312,2.144,21.191
						c-3.634,6.879-9.475,12.608-11.885,20.005s0.896,17.667,8.645,18.356c2.852,0.254,5.633-0.861,8.474-1.219
						c9.05-1.142,18.468,9.281,13.839,17.141c-4.549,7.724-18.051,7.6-20.553,16.208c-1.129,3.885,0.635,7.934,1.637,11.854
						c3.351,13.113-20.564,83.537-92.037,54.948C92.518,510.918,92.262,499.669,92.262,499.669z"/>
				</g>
				<g>
					<g>
						<path style="fill:#263841;" d="M133.541,501.2c6.924-6.686,13.391-13.707,19.237-21.195c2.892-3.766,5.71-7.58,8.281-11.559
							c2.605-3.954,5.064-8,7.292-12.177c2.295-4.142,4.39-8.412,6.443-12.719c2.102-4.285,4.057-8.658,6.178-12.971
							c4.164-8.645,8.614-17.293,14.316-25.073c-4.267,8.631-7.836,17.468-11.464,26.342c-1.777,4.452-3.671,8.867-5.592,13.29
							c-1.97,4.401-4.075,8.762-6.371,13.043c-2.355,4.249-4.895,8.404-7.678,12.386c-2.817,3.957-5.773,7.817-9.015,11.426
							C148.748,489.256,141.515,495.796,133.541,501.2z"/>
					</g>
					<g>
						<path style="fill:#263841;" d="M135.517,498.203c-2.218-1.496-4.072-3.355-5.74-5.355c-1.656-2.01-3.099-4.187-4.324-6.48
							c-1.227-2.292-2.231-4.704-2.978-7.198c-0.733-2.499-1.243-5.075-1.246-7.752c1.585,2.154,2.872,4.339,4.138,6.515
							c1.251,2.181,2.448,4.358,3.615,6.552c1.168,2.194,2.311,4.4,3.425,6.654C133.507,493.405,134.606,495.691,135.517,498.203z"
							/>
					</g>
					<g>
						<path style="fill:#263841;" d="M144.097,491.454c-2.331-2.659-4.105-5.746-5.497-8.989c-1.379-3.252-2.348-6.685-2.901-10.182
							c-0.555-3.497-0.689-7.063-0.378-10.581c0.325-3.514,1.064-6.997,2.47-10.244c0.239,3.523,0.385,6.906,0.676,10.259
							c0.277,3.35,0.668,6.655,1.183,9.943c0.516,3.287,1.162,6.553,1.929,9.826C142.332,484.768,143.236,488.031,144.097,491.454z"
							/>
					</g>
					<g>
						<path style="fill:#263841;" d="M172.633,460.797c3.042-3.206,6.303-6.09,9.6-8.921c3.312-2.81,6.695-5.516,10.142-8.139
							c3.446-2.624,6.958-5.161,10.551-7.601c3.608-2.422,7.261-4.79,11.166-6.861c-2.854,3.376-5.999,6.408-9.227,9.338
							c-3.243,2.911-6.604,5.677-10.069,8.308c-3.464,2.631-7.028,5.131-10.701,7.477
							C180.407,456.724,176.647,458.946,172.633,460.797z"/>
					</g>
					<g>
						<path style="fill:#263841;" d="M168.367,463.14c2.89-0.46,5.777-0.388,8.627-0.067c2.848,0.337,5.658,0.961,8.387,1.836
							c2.729,0.874,5.376,2.007,7.886,3.393c2.503,1.399,4.891,3.026,6.968,5.089c-2.863-0.595-5.539-1.399-8.199-2.195
							c-2.652-0.809-5.268-1.637-7.88-2.481c-2.612-0.842-5.221-1.695-7.847-2.584C173.684,465.226,171.04,464.321,168.367,463.14z"
							/>
					</g>
				</g>
			</g>
			<g>
				<g>
					<path style="fill:#BDDAEF;" d="M676.128,504.267c-14.15-2.175-36.656-17.97-46.137-28.696
						c-3.609-4.083-6.275-9.62-4.952-14.907c2.552-10.196,16.275-11.618,26.758-10.857c-15.378,0.082-30.465-8.947-37.659-22.539
						c-1.25-2.361-2.297-4.976-2.012-7.632c0.499-4.657,5.099-8.037,9.742-8.651c4.643-0.614,9.284,0.911,13.656,2.591
						c-14.64-13.985-22.499-34.769-20.775-54.942c0.257-3.001,0.832-6.225,3.018-8.297c3.948-3.742,10.407-1.639,15.179,0.974
						c17.28,9.462,32.214,23.172,43.116,39.582c0.714-4.684,1.496-9.547,4.175-13.455c2.679-3.909,7.848-6.545,12.251-4.794
						c3.297,1.312,5.299,4.614,6.935,7.762c4.868,9.37,8.621,19.318,11.156,29.568c2.264-8.301,7.796-18.688,16.147-16.613
						c4.681,1.163,7.366,5.943,9.505,10.266c4.804,9.706,4.927,14.783,9.731,24.489c0,0,23.43,66.099,9.533,81.029
						C741.95,523.696,687.848,506.069,676.128,504.267z"/>
					<g>
						<path style="fill:#BDDAEF;" d="M676.792,501.857c-14.685-2.555-28.993-12.941-39.771-22.777
							c-5.729-5.228-14.682-15.059-6.84-22.385c5.432-5.075,14.722-4.825,21.616-4.387c0-1.667,0-3.333,0-5
							c-11.112-0.152-21.715-4.738-29.386-12.812c-3.569-3.756-9.955-11.377-6.907-16.762c3.97-7.014,13.417-3.972,19.357-1.746
							c2.406,0.902,4.126-2.521,2.432-4.178c-7.897-7.729-13.821-17.17-17.156-27.724c-1.652-5.229-2.693-10.647-3.012-16.123
							c-0.279-4.786-1.393-15.462,4.674-17.007c5.186-1.321,11.426,3.262,15.557,5.825c4.702,2.918,9.204,6.153,13.45,9.701
							c8.89,7.43,16.624,16.072,23.098,25.675c1.066,1.581,4.212,1.707,4.569-0.597c0.74-4.77,1.408-10.376,4.909-14.002
							c2.064-2.138,4.897-3.423,7.789-2.518c3.087,0.965,4.65,3.916,6.092,6.63c4.855,9.137,8.358,18.96,10.905,28.971
							c0.618,2.431,4.149,2.326,4.821,0c1.373-4.75,3.652-11.372,8.255-14.014c6.273-3.601,10.447,3.46,12.827,8.264
							c3.841,7.754,6.503,16.356,9.661,24.413c3.806,9.708,6.403,20.156,8.836,30.268c3.124,12.979,7.252,28.728,3.887,42.042
							c-3.455,13.672-22.543,11.202-33.208,9.911C707.452,509.612,692.421,504.395,676.792,501.857
							c-3.148-0.511-4.502,4.306-1.329,4.821c15.882,2.58,31.162,7.786,47.209,9.774c12.277,1.521,32.561,3.419,37.885-11.164
							c2.395-6.559,2.077-14.095,1.443-20.928c-0.818-8.808-2.542-17.527-4.609-26.119c-2.518-10.463-5.153-21.403-9.27-31.387
							c-2.789-6.763-5.016-13.764-7.894-20.486c-2.266-5.291-5.044-11.692-10.443-14.48c-11.536-5.957-19.052,8.559-21.615,17.421
							c1.607,0,3.214,0,4.821,0c-1.937-7.614-4.453-15.033-7.612-22.229c-2.363-5.382-4.971-12.683-10.292-15.917
							c-4.365-2.654-9.739-1.611-13.621,1.417c-5.447,4.248-6.812,11.196-7.813,17.649c1.523-0.199,3.046-0.398,4.569-0.597
							c-7.916-11.741-17.58-22.106-28.878-30.66c-7.27-5.504-21.987-17.783-31.8-11.61c-4.82,3.032-5.286,9.245-5.483,14.38
							c-0.246,6.429,0.481,12.927,1.997,19.175c3.176,13.086,10.093,25.025,19.699,34.427c0.811-1.393,1.622-2.786,2.432-4.178
							c-7.177-2.69-15.777-4.761-22.261,0.665c-6.185,5.177-4.563,12.477-0.844,18.635c8.119,13.442,23.114,21.628,38.712,21.841
							c3.242,0.044,3.187-4.797,0-5c-8.039-0.511-17.77-0.25-24.317,5.133c-7.931,6.522-5.66,17.191,0.217,24.265
							c5.978,7.195,13.965,13.079,21.739,18.179c7.854,5.152,16.657,10.164,26.027,11.794
							C678.61,507.225,679.962,502.408,676.792,501.857z"/>
					</g>
				</g>
				<g>
					<g>
						<path style="fill:#263841;" d="M760.815,510.475c-13.13-9.33-25.81-19.29-38.109-29.709
							c-6.175-5.182-12.166-10.578-18.141-15.995l-8.805-8.299l-8.632-8.485l-8.384-8.737c-2.763-2.942-5.459-5.952-8.167-8.946
							c-5.3-6.095-10.531-12.258-15.401-18.712c-9.768-12.846-18.665-26.535-24.957-41.393c7.786,14.11,17.263,27.072,27.405,39.456
							l3.864,4.597l1.916,2.31c0.644,0.765,1.322,1.504,1.982,2.257l3.981,4.497c1.33,1.496,2.636,3.012,4.026,4.456
							c2.75,2.913,5.416,5.902,8.19,8.793l8.387,8.611l8.511,8.496l8.667,8.344c2.895,2.776,5.84,5.501,8.758,8.255l8.854,8.16
							C736.626,489.253,748.712,499.846,760.815,510.475z"/>
					</g>
					<g>
						<path style="fill:#263841;" d="M690.928,445.104c-1.655-4.594-2.899-9.26-4.048-13.942c-1.124-4.687-2.093-9.402-2.93-14.139
							c-0.838-4.738-1.538-9.499-2.084-14.288c-0.523-4.793-0.946-9.604-0.955-14.487c1.66,4.593,2.906,9.258,4.053,13.941
							c1.123,4.687,2.093,9.402,2.925,14.14c0.832,4.738,1.533,9.5,2.079,14.289C690.488,435.411,690.914,440.221,690.928,445.104z"
							/>
					</g>
					<g>
						<path style="fill:#263841;" d="M708.782,464.06c-1.297-4.067-2.178-8.181-2.964-12.305c-0.76-4.127-1.365-8.272-1.836-12.432
							c-0.472-4.16-0.805-8.335-0.982-12.528c-0.154-4.196-0.207-8.402,0.156-12.656c1.301,4.066,2.185,8.18,2.969,12.304
							c0.76,4.127,1.365,8.272,1.83,12.433c0.466,4.16,0.799,8.336,0.977,12.529C709.085,455.6,709.141,459.806,708.782,464.06z"/>
					</g>
					<g>
						<path style="fill:#263841;" d="M697.202,452.41c-2.841,1.877-5.953,3.226-9.154,4.28c-3.208,1.038-6.523,1.747-9.874,2.137
							c-3.351,0.391-6.741,0.455-10.101,0.176c-3.358-0.294-6.695-0.901-9.888-2.086c3.369-0.472,6.633-0.738,9.876-1.059
							c3.24-0.307,6.449-0.636,9.655-1.003c3.206-0.368,6.405-0.779,9.631-1.219C690.577,453.21,693.816,452.723,697.202,452.41z"/>
					</g>
				</g>
			</g>
			<g>
				<g>
					<g>
						<g>
							<path style="fill:#5769F9;" d="M624.757,496.751c-29.105-22.185-49.04-58.415-40.734-94.056
								c0.25-1.074,0.594-2.248,1.526-2.838c1.158-0.733,2.67-0.244,3.937,0.279c40.965,16.923,73.18,53.702,84.559,96.54
								C674.044,496.676,672.484,533.13,624.757,496.751z"/>
							<g>
								<path style="fill:#5769F9;" d="M626.525,494.983c-19.255-14.877-34.879-35.537-40.146-59.628
									c-1.249-5.713-1.846-11.543-1.742-17.392c0.045-2.547,0.215-5.099,0.532-7.627c0.179-1.425,0.281-4.075,0.927-5.449
									c-0.086-1.671,0.822-2.451,2.725-2.341c1.18,0.491,2.351,1,3.515,1.526c10.447,4.727,20.337,10.746,29.327,17.866
									c17.987,14.246,32.554,32.71,42.136,53.563c2.402,5.227,4.458,10.611,6.175,16.101c0.631,2.015,1.529,3.949,1.481,6.037
									c-0.035,1.526-1.245,5.204-2.431,7.142c-9.478,15.495-34.324-3.648-43.005-10.19c-2.57-1.937-5.065,2.403-2.524,4.317
									c10.829,8.16,33.737,25.035,47.11,11.912c2.855-2.801,4.607-6.66,5.428-10.536c1.252-5.909-1.609-11.583-3.658-17.07
									c-9.206-24.651-25.074-46.741-45.434-63.409c-10.371-8.49-21.825-15.629-34.132-20.955
									c-4.181-1.809-8.881-3.216-10.898,2.096c-2.182,5.749-2.355,13.234-2.277,19.295c0.403,31.259,19.248,59.651,43.354,78.275
									C625.505,500.462,629.069,496.948,626.525,494.983z"/>
							</g>
						</g>
						<g>
							<path style="fill:#5769F9;" d="M714.611,371.611c-13.327-15.168-18.04-37.434-12.003-56.702
								c1.613-5.146,4.151-10.329,8.67-13.272C726.707,320.1,714.611,371.611,714.611,371.611z"/>
							<g>
								<path style="fill:#5769F9;" d="M716.379,369.843c-7.829-9.169-12.657-20.688-13.651-32.719
									c-0.878-10.627,0.36-26.491,9.812-33.328c-1.01-0.13-2.02-0.261-3.029-0.391c8.672,10.842,7.656,28.278,6.634,41.262
									c-0.693,8.807-1.936,17.667-3.945,26.279c-0.73,3.13,4.09,4.467,4.821,1.329c2.278-9.765,3.633-19.862,4.285-29.858
									c0.914-14.012,0.971-31.007-8.261-42.548c-0.63-0.788-2.211-0.983-3.03-0.391c-10.72,7.754-13.102,23.74-12.397,36.098
									c0.798,13.982,6.143,27.168,15.224,37.802C714.936,375.829,718.459,372.279,716.379,369.843z"/>
							</g>
						</g>
						<g>
							<path style="fill:#5769F9;" d="M559.76,418.979c-6.491-14.029-18.942-25.181-33.599-30.092
								c-5.321,7.505-2.91,18.808,4.029,24.848C537.129,419.775,559.76,418.979,559.76,418.979z"/>
							<g>
								<path style="fill:#5769F9;" d="M561.919,417.718c-7.069-14.743-19.693-25.843-35.093-31.241
									c-1.069-0.375-2.252,0.259-2.823,1.149c-6.585,10.253-2.391,26.022,9.22,30.662c8.11,3.241,17.898,3.473,26.538,3.192
									c3.209-0.104,3.224-5.105,0-5c-6.383,0.208-12.977-0.058-19.243-1.315c-4.902-0.983-8.925-2.512-11.763-6.874
									c-3.604-5.54-4.037-12.532-0.434-18.141c-0.941,0.383-1.882,0.766-2.823,1.149c14.222,4.985,25.602,15.382,32.105,28.944
									C558.992,423.141,563.305,420.608,561.919,417.718z"/>
							</g>
						</g>
						<g>
							<path style="fill:#5769F9;" d="M654.02,332.017c-12.798-3.157-21.736-17.393-19.018-30.292
								c12.276,3.104,21.251,16,19.896,28.59"/>
							<g>
								<path style="fill:#5769F9;" d="M654.684,329.607c-11.613-3.241-19.414-15.263-17.272-27.216
									c-1.025,0.582-2.05,1.164-3.075,1.746c11.49,3.274,18.978,14.329,18.06,26.18c-0.248,3.209,4.753,3.193,5,0
									c1.088-14.047-8.238-27.156-21.731-31.001c-1.211-0.345-2.838,0.421-3.075,1.746c-2.621,14.627,6.369,29.349,20.764,33.367
									C656.459,335.294,657.784,330.472,654.684,329.607L654.684,329.607z"/>
							</g>
						</g>
					</g>
					<g>
						<g>
							<path style="fill:#263841;" d="M586.734,400.977c5.599,10.021,11.441,19.886,17.518,29.596
								c6.101,9.695,12.448,19.23,19.109,28.542c6.631,9.333,13.574,18.444,20.749,27.373c7.197,8.912,14.615,17.653,22.26,26.216
								c-8.207-8.027-16.041-16.448-23.463-25.222c-7.444-8.756-14.487-17.855-21.174-27.207
								c-6.657-9.373-12.961-18.999-18.809-28.892C597.053,421.504,591.647,411.352,586.734,400.977z"/>
						</g>
						<g>
							<path style="fill:#263841;" d="M583.325,442.155c3.391,0.657,6.707,1.631,9.956,2.79c3.255,1.148,6.426,2.525,9.53,4.036
								c3.088,1.544,6.109,3.225,9,5.111c2.896,1.874,5.685,3.916,8.267,6.211l-9.059-4.866c-3.018-1.592-6.033-3.172-9.093-4.664
								c-3.043-1.525-6.131-2.958-9.23-4.387L583.325,442.155z"/>
						</g>
						<g>
							<path style="fill:#263841;" d="M580.121,427.662c3.113,0.891,6.129,2.06,9.077,3.378c2.954,1.308,5.819,2.808,8.624,4.409
								c2.786,1.634,5.513,3.373,8.117,5.284c2.61,1.9,5.125,3.936,7.445,6.195c-2.819-1.591-5.558-3.253-8.305-4.893
								c-2.753-1.629-5.489-3.272-8.259-4.857c-2.752-1.617-5.538-3.172-8.32-4.75C585.71,430.861,582.906,429.313,580.121,427.662z
								"/>
						</g>
						<g>
							<path style="fill:#263841;" d="M616.402,416.155c0.158,3.028,0.226,6.024,0.327,9.013c0.113,2.988,0.213,5.969,0.393,8.945
								c0.142,2.979,0.362,5.953,0.569,8.936c0.22,2.983,0.472,5.968,0.636,8.997c-0.982-2.871-1.67-5.825-2.185-8.806
								c-0.528-2.981-0.837-5.997-1.016-9.02c-0.142-3.024-0.158-6.056,0.048-9.076
								C615.368,422.125,615.735,419.115,616.402,416.155z"/>
						</g>
						<g>
							<path style="fill:#263841;" d="M639.793,479.017c-0.6-3.396-0.905-6.83-1.043-10.268c-0.15-3.439-0.085-6.884,0.101-10.322
								c0.223-3.435,0.569-6.863,1.128-10.26c0.546-3.397,1.26-6.77,2.263-10.07c-0.183,3.443-0.461,6.849-0.713,10.252
								c-0.239,3.403-0.497,6.798-0.683,10.198c-0.223,3.397-0.372,6.799-0.541,10.206
								C640.149,472.162,640.02,475.577,639.793,479.017z"/>
						</g>
						<g>
							<path style="fill:#263841;" d="M604.303,476.965c2.793-0.098,5.563,0.001,8.325,0.168c2.764,0.155,5.514,0.426,8.262,0.72
								c2.744,0.331,5.484,0.687,8.212,1.158c2.729,0.459,5.45,0.989,8.148,1.716c-2.793,0.1-5.563,0.003-8.326-0.165
								c-2.764-0.155-5.514-0.427-8.262-0.723c-2.743-0.333-5.484-0.689-8.212-1.161
								C609.723,478.218,607.002,477.689,604.303,476.965z"/>
						</g>
					</g>
				</g>
				<g>
					<g>
						<path style="fill:#263841;" d="M522.544,390.827c2.101,3.105,4.516,5.897,7.187,8.409c2.68,2.501,5.579,4.754,8.648,6.764
							c3.052,2.043,6.269,3.852,9.522,5.627c3.26,1.766,6.581,3.46,9.834,5.329c-3.583-1.104-7.091-2.405-10.522-3.928
							c-3.435-1.511-6.773-3.286-9.938-5.362c-3.143-2.106-6.108-4.521-8.654-7.341
							C526.072,397.523,523.913,394.326,522.544,390.827z"/>
					</g>
					<g>
						<path style="fill:#263841;" d="M634.445,302.087c2.292,1.536,4.375,3.359,6.298,5.336c1.934,1.97,3.673,4.127,5.268,6.383
							c1.564,2.277,2.984,4.656,4.162,7.153c1.188,2.489,2.174,5.077,2.817,7.759c-1.414-2.367-2.77-4.713-4.188-7.014
							c-1.429-2.293-2.879-4.559-4.431-6.757c-1.521-2.219-3.144-4.366-4.798-6.502
							C637.907,306.317,636.176,304.233,634.445,302.087z"/>
					</g>
					<g>
						<path style="fill:#263841;" d="M637.11,318.044c0.78-0.341,1.54-0.473,2.295-0.558c0.754-0.072,1.499-0.066,2.238,0.007
							c0.739,0.072,1.471,0.214,2.196,0.434c0.723,0.231,1.441,0.513,2.139,1.004c-0.781,0.343-1.54,0.477-2.295,0.561
							c-0.754,0.072-1.499,0.066-2.238-0.009c-0.739-0.075-1.471-0.217-2.196-0.437C638.526,318.813,637.807,318.533,637.11,318.044
							z"/>
					</g>
					<g>
						<path style="fill:#263841;" d="M713.191,368.952c-1.934-4.8-3.354-9.812-4.362-14.906c-1.021-5.094-1.585-10.28-1.779-15.478
							c-0.157-5.198,0.057-10.411,0.733-15.562c0.663-5.15,1.745-10.246,3.355-15.165c-0.799,5.11-1.436,10.208-1.802,15.32
							c-0.352,5.111-0.477,10.23-0.288,15.34c0.152,5.111,0.62,10.21,1.314,15.286C711.069,358.864,712.047,363.908,713.191,368.952
							z"/>
					</g>
					<g>
						<path style="fill:#263841;" d="M708.521,339.341c0.598-1.964,1.452-3.821,2.434-5.604c0.983-1.783,2.096-3.494,3.335-5.11
							c1.233-1.62,2.597-3.141,4.059-4.556c1.463-1.414,3.034-2.723,4.776-3.811c-1.165,1.689-2.394,3.272-3.613,4.853l-3.634,4.73
							l-3.619,4.742C711.051,336.174,709.845,337.773,708.521,339.341z"/>
					</g>
					<g>
						<path style="fill:#263841;" d="M710.731,353.524c0.442-1.918,1.142-3.747,1.971-5.51c0.83-1.764,1.791-3.466,2.88-5.083
							c1.083-1.621,2.298-3.153,3.617-4.588c1.319-1.434,2.748-2.772,4.359-3.904c-0.998,1.696-2.069,3.286-3.135,4.871
							l-3.182,4.737l-3.186,4.734C712.989,350.365,711.922,351.958,710.731,353.524z"/>
					</g>
				</g>
			</g>
			<g>
				<g>
					<g>
						<path style="fill:#EFF9F8;" d="M30.998,375.18c3.345,0,3.35-5.198,0-5.198C27.653,369.982,27.648,375.18,30.998,375.18
							L30.998,375.18z"/>
					</g>
				</g>
				<g>
					<g>
						<path style="fill:#EFF9F8;" d="M50.951,477.603c3.345,0,3.35-5.198,0-5.198C47.606,472.404,47.6,477.603,50.951,477.603
							L50.951,477.603z"/>
					</g>
				</g>
				<g>
					<g>
						<path style="fill:#EFF9F8;" d="M69.573,392.472c3.345,0,3.35-5.198,0-5.198C66.228,387.274,66.223,392.472,69.573,392.472
							L69.573,392.472z"/>
					</g>
				</g>
				<g>
					<g>
						<path style="fill:#EFF9F8;" d="M194.608,425.726c3.345,0,3.35-5.198,0-5.198C191.264,420.528,191.258,425.726,194.608,425.726
							L194.608,425.726z"/>
					</g>
				</g>
				<g>
					<g>
						<path style="fill:#EFF9F8;" d="M168.005,486.914c3.345,0,3.35-5.198,0-5.198C164.66,481.716,164.655,486.914,168.005,486.914
							L168.005,486.914z"/>
					</g>
				</g>
				<g>
					<g>
						<path style="fill:#EFF9F8;" d="M592.328,22.687c3.345,0,3.35-5.198,0-5.198C588.983,17.488,588.977,22.687,592.328,22.687
							L592.328,22.687z"/>
					</g>
				</g>
				<g>
					<g>
						<path style="fill:#EFF9F8;" d="M709.382,53.28c3.345,0,3.35-5.198,0-5.198C706.037,48.082,706.032,53.28,709.382,53.28
							L709.382,53.28z"/>
					</g>
				</g>
				<g>
					<g>
						<path style="fill:#EFF9F8;" d="M608.289,73.233c3.345,0,3.35-5.198,0-5.198C604.945,68.035,604.939,73.233,608.289,73.233
							L608.289,73.233z"/>
					</g>
				</g>
				<g>
					<g>
						<path style="fill:#EFF9F8;" d="M608.289,465.631c3.345,0,3.35-5.198,0-5.198C604.945,460.433,604.939,465.631,608.289,465.631
							L608.289,465.631z"/>
					</g>
				</g>
				<g>
					<g>
						<path style="fill:#EFF9F8;" d="M662.826,488.244c3.345,0,3.35-5.198,0-5.198C659.481,483.046,659.476,488.244,662.826,488.244
							L662.826,488.244z"/>
					</g>
				</g>
				<g>
					<g>
						<path style="fill:#EFF9F8;" d="M713.372,311.332c3.345,0,3.35-5.198,0-5.198C710.028,306.134,710.022,311.332,713.372,311.332
							L713.372,311.332z"/>
					</g>
				</g>
				<g>
					<g>
						<path style="fill:#EFF9F8;" d="M640.214,416.415c0.443,0,0.887,0,1.33,0c1.36,0,2.662-1.195,2.599-2.599
							c-0.063-1.408-1.142-2.599-2.599-2.599c-0.443,0-0.887,0-1.33,0c-1.36,0-2.662,1.195-2.599,2.599
							C637.677,415.224,638.756,416.415,640.214,416.415L640.214,416.415z"/>
					</g>
				</g>
				<circle style="fill:#EFF9F8;stroke:#EFF9F8;stroke-width:1.0396;stroke-miterlimit:10;" cx="722.684" cy="423.127" r="7.981"/>
				<path style="fill:#EFF9F8;stroke:#EFF9F8;stroke-width:1.0396;stroke-miterlimit:10;" d="M593.658,416.476
					c0-2.938-2.382-5.321-5.321-5.321c-2.939,0-5.321,2.382-5.321,5.321c0,2.939,2.382,5.321,5.321,5.321
					C591.276,421.797,593.658,419.415,593.658,416.476z"/>
				<circle style="fill:#EFF9F8;stroke:#EFF9F8;stroke-width:1.0396;stroke-miterlimit:10;" cx="525.819" cy="397.854" r="6.651"/>
				<circle style="fill:#EFF9F8;stroke:#EFF9F8;stroke-width:1.0396;stroke-miterlimit:10;" cx="535.13" cy="469.683" r="6.651"/>
				<path style="fill:#EFF9F8;stroke:#EFF9F8;stroke-width:1.0396;stroke-miterlimit:10;" d="M734.655,371.251
					c0-1.469-1.191-2.66-2.66-2.66c-1.469,0-2.66,1.191-2.66,2.66c0,1.469,1.191,2.66,2.66,2.66
					C733.464,373.911,734.655,372.72,734.655,371.251z"/>
				<circle style="fill:#EFF9F8;stroke:#EFF9F8;stroke-width:1.0396;stroke-miterlimit:10;" cx="697.41" cy="101.227" r="7.981"/>
				<circle style="fill:#EFF9F8;stroke:#EFF9F8;stroke-width:1.0396;stroke-miterlimit:10;" cx="568.385" cy="61.322" r="2.66"/>
				<path style="fill:#EFF9F8;stroke:#EFF9F8;stroke-width:1.0396;stroke-miterlimit:10;" d="M242.494,478.994
					c0-2.938-2.382-5.321-5.321-5.321c-2.938,0-5.321,2.382-5.321,5.321c0,2.939,2.382,5.321,5.321,5.321
					C240.112,484.315,242.494,481.932,242.494,478.994z"/>
				<circle style="fill:#EFF9F8;stroke:#EFF9F8;stroke-width:1.0396;stroke-miterlimit:10;" cx="72.233" cy="298.092" r="6.651"/>
				<circle style="fill:#EFF9F8;stroke:#EFF9F8;stroke-width:1.0396;stroke-miterlimit:10;" cx="118.789" cy="392.533" r="3.99"/>
				<circle style="fill:#EFF9F8;stroke:#EFF9F8;stroke-width:1.0396;stroke-miterlimit:10;" cx="97.507" cy="480.324" r="6.651"/>
				<circle style="fill:#EFF9F8;stroke:#EFF9F8;stroke-width:1.0396;stroke-miterlimit:10;" cx="11.046" cy="320.704" r="7.981"/>
				
					<ellipse transform="matrix(0.7071 -0.7071 0.7071 0.7071 -249.2026 353.6995)" style="fill:#EFF9F8;stroke:#EFF9F8;stroke-width:1.0396;stroke-miterlimit:10;" cx="302.352" cy="477.664" rx="9.311" ry="9.311"/>
				<path style="fill:#EFF9F8;stroke:#EFF9F8;stroke-width:1.0396;stroke-miterlimit:10;" d="M465.962,471.013
					c0-1.469-1.191-2.66-2.66-2.66c-1.469,0-2.66,1.191-2.66,2.66c0,1.469,1.191,2.66,2.66,2.66
					C464.771,473.673,465.962,472.482,465.962,471.013z"/>
			</g>
			<g>
				<g>
					<g>
						<path style="fill:#5769F9;" d="M30.333,1.133C50.415,0.88,69.255,16.413,75.344,35.55c0.184,0.577,0.351,1.227,0.077,1.766
							c-0.34,0.671-1.191,0.865-1.935,0.974C49.419,41.811,18.462,30.441,1.07,13.437C0.737,7.285,2.4,9.945,1.402,0.966
							L30.333,1.133z"/>
						<g>
							<path style="fill:#5769F9;" d="M30.333,2.504c13.296,0.08,25.499,6.578,34.127,16.531c2.139,2.468,4.03,5.157,5.645,7.995
								c0.714,1.254,1.378,2.54,1.977,3.853c0.55,1.201,1.044,2.425,1.482,3.671c0.829,1.008,0.664,1.66-0.495,1.954
								c-1.754,1.637-7.203,1.068-9.432,1.047c-2.941-0.028-5.884-0.234-8.802-0.597c-13.404-1.668-26.563-6.408-38.129-13.347
								c-2.54-1.524-5.016-3.164-7.39-4.938c-1.982-1.481-6.178-3.899-6.917-6.428c-0.366-1.254,0.335-2.922,0.509-4.174
								c0.331-2.379,0.103-4.722-0.134-7.105C2.317,1.424,1.859,1.881,1.402,2.338C11.046,2.394,20.69,2.449,30.333,2.504
								c1.766,0.01,1.768-2.734,0-2.744C20.69-0.295,11.046-0.35,1.402-0.406C0.715-0.41-0.043,0.228,0.03,0.966
								c0.39,3.917-0.595,7.474-0.375,11.279c0.232,4.024,5.818,6.999,8.865,9.228c10.126,7.406,21.892,12.743,34.021,15.887
								c5.708,1.48,11.567,2.464,17.457,2.809c4.025,0.236,11.855,1.246,15.439-1.078c3.261-2.115,0.198-7.022-0.985-9.593
								c-2.469-5.365-5.909-10.302-10.012-14.547C55.472,5.673,43.315-0.161,30.333-0.239C28.567-0.25,28.565,2.494,30.333,2.504z"
								/>
						</g>
					</g>
					<g>
						<path style="fill:#5769F9;" d="M82.213,21.06c7,4.793,16.001,6.556,24.291,4.757c0.402-5.033-3.908-9.686-8.876-10.586
							c-4.968-0.9-10.139,1.409-13.627,5.06"/>
						<g>
							<path style="fill:#5769F9;" d="M81.521,22.245c7.647,4.943,16.417,6.586,25.348,4.895c0.583-0.11,1.009-0.757,1.007-1.323
								c-0.016-5.325-3.425-9.955-8.547-11.573c-5.979-1.889-12.028,0.97-16.297,5.076c-1.275,1.227,0.667,3.165,1.94,1.94
								c3.006-2.891,6.856-5.081,11.162-4.833c5.036,0.29,8.983,4.405,8.998,9.389c0.336-0.441,0.671-0.882,1.007-1.323
								c-8.221,1.556-16.224-0.087-23.234-4.618C81.418,18.914,80.041,21.288,81.521,22.245L81.521,22.245z"/>
						</g>
					</g>
					<g>
						<path style="fill:#5769F9;" d="M53.649,49.679c6.453,3.268,9.475,11.985,6.429,18.546c-6.181-3.176-9.387-11.18-7.108-17.744"
							/>
						<g>
							<path style="fill:#5769F9;" d="M52.957,50.863c6.029,3.362,8.435,10.667,5.798,16.996c0.672-0.273,1.344-0.547,2.015-0.82
								c-5.739-3.233-8.396-9.899-6.477-16.195c0.516-1.693-2.132-2.417-2.646-0.729c-2.267,7.438,0.967,15.479,7.738,19.294
								c0.85,0.479,1.677-0.007,2.015-0.82c3.1-7.44-0.055-16.189-7.059-20.095C52.798,47.633,51.412,50.002,52.957,50.863
								L52.957,50.863z"/>
						</g>
					</g>
				</g>
				<g>
					<g>
						<path style="fill:#263841;" d="M74.548,37.122l-4.103-2.34l-4.131-2.283l-4.148-2.247l-4.185-2.174
							c-5.6-2.856-11.256-5.599-17.027-8.088c-5.734-2.57-11.577-4.891-17.467-7.088l-4.43-1.617l-4.459-1.54l-4.474-1.504
							L5.63,6.796l4.579,1.166l4.554,1.27l4.517,1.396l4.492,1.479c5.969,2.039,11.833,4.378,17.624,6.879
							c5.755,2.583,11.443,5.323,16.977,8.348l4.126,2.312l4.081,2.387l4.013,2.499L74.548,37.122z"/>
					</g>
					<g>
						<path style="fill:#263841;" d="M64.595,16.748C61.022,18.011,57.264,18.686,53.49,19c-3.776,0.282-7.594,0.201-11.32-0.491
							c3.781-0.175,7.508-0.295,11.234-0.602C57.133,17.631,60.834,17.167,64.595,16.748z"/>
					</g>
					<g>
						<path style="fill:#263841;" d="M70.175,22.683c-3.44,0.885-6.99,1.237-10.533,1.297c-3.543,0.028-7.1-0.239-10.561-1.044
							c3.548-0.06,7.043,0.004,10.548-0.053C63.134,22.858,66.627,22.711,70.175,22.683z"/>
					</g>
					<g>
						<path style="fill:#263841;" d="M56.298,38.294c-1.829-2.775-3.543-5.555-5.381-8.266c-1.812-2.729-3.732-5.37-5.603-8.117
							c2.522,2.172,4.653,4.757,6.514,7.507C53.662,32.184,55.244,35.137,56.298,38.294z"/>
					</g>
					<g>
						<path style="fill:#263841;" d="M27.62,15.219c2.455,2.88,4.475,6.098,6.224,9.444c1.721,3.361,3.18,6.87,4.109,10.538
							c-1.74-3.357-3.352-6.72-5.083-10.034C31.168,21.838,29.356,18.578,27.62,15.219z"/>
					</g>
					<g>
						<path style="fill:#263841;" d="M44.931,6.223c-2.588,1.64-5.313,2.976-8.071,4.238c-2.772,1.232-5.578,2.388-8.521,3.238
							c2.587-1.642,5.312-2.978,8.071-4.238C39.182,8.231,41.988,7.076,44.931,6.223z"/>
					</g>
				</g>
			</g>
		</g>
	</g>
	<g>
		<g>
			<g>
				
					<line style="fill:none;stroke:#EFF9F8;stroke-width:2.8424;stroke-miterlimit:10;" x1="45.835" y1="232.402" x2="45.835" y2="271.629"/>
				<polyline style="fill:none;stroke:#EFF9F8;stroke-width:2.8424;stroke-miterlimit:10;" points="52.686,233.347 45.835,240.198 
					38.985,233.347 				"/>
				<polyline style="fill:none;stroke:#EFF9F8;stroke-width:2.8424;stroke-miterlimit:10;" points="52.686,270.209 45.835,263.358 
					38.985,270.209 				"/>
			</g>
			<g>
				
					<line style="fill:none;stroke:#EFF9F8;stroke-width:2.8424;stroke-miterlimit:10;" x1="62.291" y1="241.343" x2="29.38" y2="262.687"/>
				<polyline style="fill:none;stroke:#EFF9F8;stroke-width:2.8424;stroke-miterlimit:10;" points="65.226,247.605 55.75,245.585 
					57.771,236.109 				"/>
				<polyline style="fill:none;stroke:#EFF9F8;stroke-width:2.8424;stroke-miterlimit:10;" points="34.299,267.662 36.319,258.187 
					26.843,256.167 				"/>
			</g>
			<g>
				
					<line style="fill:none;stroke:#EFF9F8;stroke-width:2.8424;stroke-miterlimit:10;" x1="29.778" y1="241.343" x2="62.69" y2="262.687"/>
				<polyline style="fill:none;stroke:#EFF9F8;stroke-width:2.8424;stroke-miterlimit:10;" points="26.843,247.605 36.319,245.585 
					34.299,236.109 				"/>
				<polyline style="fill:none;stroke:#EFF9F8;stroke-width:2.8424;stroke-miterlimit:10;" points="57.771,267.662 55.75,258.187 
					65.226,256.167 				"/>
			</g>
		</g>
		<g>
			<g>
				
					<line style="fill:none;stroke:#EFF9F8;stroke-width:2.8424;stroke-miterlimit:10;" x1="585.073" y1="309.551" x2="585.073" y2="348.778"/>
				<polyline style="fill:none;stroke:#EFF9F8;stroke-width:2.8424;stroke-miterlimit:10;" points="591.924,310.496 
					585.073,317.347 578.222,310.496 				"/>
				<polyline style="fill:none;stroke:#EFF9F8;stroke-width:2.8424;stroke-miterlimit:10;" points="591.924,347.358 
					585.073,340.507 578.222,347.358 				"/>
			</g>
			<g>
				
					<line style="fill:none;stroke:#EFF9F8;stroke-width:2.8424;stroke-miterlimit:10;" x1="601.529" y1="318.493" x2="568.617" y2="339.836"/>
				<polyline style="fill:none;stroke:#EFF9F8;stroke-width:2.8424;stroke-miterlimit:10;" points="604.463,324.755 
					594.988,322.735 597.008,313.259 				"/>
				<polyline style="fill:none;stroke:#EFF9F8;stroke-width:2.8424;stroke-miterlimit:10;" points="573.536,344.812 
					575.556,335.336 566.081,333.316 				"/>
			</g>
			<g>
				
					<line style="fill:none;stroke:#EFF9F8;stroke-width:2.8424;stroke-miterlimit:10;" x1="569.015" y1="318.493" x2="601.927" y2="339.836"/>
				<polyline style="fill:none;stroke:#EFF9F8;stroke-width:2.8424;stroke-miterlimit:10;" points="566.081,324.755 
					575.556,322.735 573.536,313.259 				"/>
				<polyline style="fill:none;stroke:#EFF9F8;stroke-width:2.8424;stroke-miterlimit:10;" points="597.008,344.812 
					594.988,335.336 604.463,333.316 				"/>
			</g>
		</g>
		<g>
			<g>
				
					<line style="fill:none;stroke:#EFF9F8;stroke-width:2.8526;stroke-miterlimit:10;" x1="442.457" y1="22.748" x2="442.457" y2="62.115"/>
				<polyline style="fill:none;stroke:#EFF9F8;stroke-width:2.8526;stroke-miterlimit:10;" points="449.332,23.696 442.457,30.572 
					435.582,23.696 				"/>
				<polyline style="fill:none;stroke:#EFF9F8;stroke-width:2.8526;stroke-miterlimit:10;" points="449.332,60.69 442.457,53.815 
					435.582,60.69 				"/>
			</g>
			<g>
				
					<line style="fill:none;stroke:#EFF9F8;stroke-width:2.8526;stroke-miterlimit:10;" x1="458.972" y1="31.721" x2="425.942" y2="53.141"/>
				<polyline style="fill:none;stroke:#EFF9F8;stroke-width:2.8526;stroke-miterlimit:10;" points="461.917,38.006 452.407,35.978 
					454.435,26.469 				"/>
				<polyline style="fill:none;stroke:#EFF9F8;stroke-width:2.8526;stroke-miterlimit:10;" points="430.879,58.135 432.906,48.625 
					423.397,46.598 				"/>
			</g>
			<g>
				
					<line style="fill:none;stroke:#EFF9F8;stroke-width:2.8526;stroke-miterlimit:10;" x1="426.342" y1="31.721" x2="459.371" y2="53.141"/>
				<polyline style="fill:none;stroke:#EFF9F8;stroke-width:2.8526;stroke-miterlimit:10;" points="423.397,38.006 432.906,35.978 
					430.879,26.469 				"/>
				<polyline style="fill:none;stroke:#EFF9F8;stroke-width:2.8526;stroke-miterlimit:10;" points="454.435,58.135 452.407,48.625 
					461.917,46.598 				"/>
			</g>
		</g>
		<path style="fill:#EFF9F8;" d="M189.288,340.657c0-3.673-2.978-6.651-6.651-6.651c-3.673,0-6.651,2.978-6.651,6.651
			c0,3.673,2.978,6.651,6.651,6.651C186.31,347.308,189.288,344.33,189.288,340.657z"/>
		<circle style="fill:#EFF9F8;" cx="569.715" cy="271.488" r="3.99"/>
		<circle style="fill:#EFF9F8;" cx="646.864" cy="264.838" r="11.971"/>
		
			<ellipse transform="matrix(0.9735 -0.2288 0.2288 0.9735 -89.3873 86.0383)" style="fill:#EFF9F8;" cx="326.295" cy="428.448" rx="9.311" ry="9.311"/>
		<path style="fill:#EFF9F8;" d="M213.231,171.726c0-2.939-2.382-5.321-5.321-5.321c-2.938,0-5.321,2.382-5.321,5.321
			c0,2.938,2.382,5.321,5.321,5.321C210.849,177.047,213.231,174.665,213.231,171.726z"/>
		<path style="fill:#EFF9F8;" d="M231.853,270.158c0-3.673-2.978-6.651-6.651-6.651c-3.673,0-6.651,2.978-6.651,6.651
			c0,3.673,2.978,6.651,6.651,6.651C228.875,276.809,231.853,273.831,231.853,270.158z"/>
		
			<ellipse transform="matrix(0.3068 -0.9518 0.9518 0.3068 -37.6452 126.8248)" style="fill:#EFF9F8;" cx="68.243" cy="89.256" rx="9.602" ry="9.602"/>
		<circle style="fill:#EFF9F8;" cx="41.64" cy="71.964" r="5.212"/>
		<path style="fill:#EFF9F8;" d="M439.359,99.897c0-3.673-2.978-6.651-6.651-6.651c-3.673,0-6.651,2.978-6.651,6.651
			c0,3.673,2.978,6.651,6.651,6.651C436.381,106.548,439.359,103.57,439.359,99.897z"/>
		
			<ellipse transform="matrix(0.66 -0.7512 0.7512 0.66 -19.025 328.0157)" style="fill:#EFF9F8;" cx="352.898" cy="185.028" rx="9.311" ry="9.311"/>
		<circle style="fill:#EFF9F8;" cx="339.596" cy="18.757" r="3.99"/>
		
			<ellipse transform="matrix(0.2223 -0.975 0.975 0.2223 -53.1967 726.355)" style="fill:#EFF9F8;" cx="428.717" cy="396.524" rx="13.302" ry="13.302"/>
		<circle style="fill:#EFF9F8;" cx="596.318" cy="186.358" r="6.651"/>
	</g>
</g>
</svg>
